<?xml version="1.0" encoding="UTF-8" standalone="no"?>
<!-- Created with Inkscape (http://www.inkscape.org/) -->

<svg
   version="1.1"
   id="svg1"
   width="1536"
   height="2048"
   viewBox="0 0 1536 2048"
   sodipodi:docname="Assembly_guid.svg"
   inkscape:version="1.3.1 (9b9bdc1480, 2023-11-25, custom)"
   xmlns:inkscape="http://www.inkscape.org/namespaces/inkscape"
   xmlns:sodipodi="http://sodipodi.sourceforge.net/DTD/sodipodi-0.dtd"
   xmlns="http://www.w3.org/2000/svg"
   xmlns:svg="http://www.w3.org/2000/svg">
  <defs
     id="defs1" />
  <sodipodi:namedview
     id="namedview1"
     pagecolor="#ffffff"
     bordercolor="#000000"
     borderopacity="0.25"
     inkscape:showpageshadow="2"
     inkscape:pageopacity="0.0"
     inkscape:pagecheckerboard="0"
     inkscape:deskcolor="#d1d1d1"
     showgrid="false"
     inkscape:zoom="0.44392119"
     inkscape:cx="486.57285"
     inkscape:cy="755.76478"
     inkscape:window-width="1854"
     inkscape:window-height="1003"
     inkscape:window-x="0"
     inkscape:window-y="0"
     inkscape:window-maximized="1"
     inkscape:current-layer="g1" />
  <g
     inkscape:groupmode="layer"
     inkscape:label="Image"
     id="g1">
    <path
       style="fill:#33a02c;fill-opacity:1;stroke:none;stroke-width:6.86132;stroke-linecap:round;stroke-dasharray:none;stroke-dashoffset:0;stroke-opacity:1"
       d=""
       id="path109" />
    <path
       style="fill:#33a02c;fill-opacity:1;stroke:none;stroke-width:6.86132;stroke-linecap:round;stroke-dasharray:none;stroke-dashoffset:0;stroke-opacity:1"
       d=""
       id="path110" />
    <path
       style="fill:#1a59cc;fill-opacity:1;stroke:none;stroke-width:10.2893;stroke-linecap:round;stroke-dasharray:none;stroke-dashoffset:0;stroke-opacity:1"
       d=""
       id="path138" />
    <path
       style="fill:none;fill-opacity:1;stroke:#1a59cc;stroke-width:7.41155;stroke-linecap:round;stroke-dasharray:none;stroke-dashoffset:0;stroke-opacity:1"
       d="M 338.6875,1370.3235 186.7058,1163.7058"
       id="path3-5-3-3" />
    <path
       style="fill:none;fill-opacity:1;stroke:#1a59cc;stroke-width:7.41155;stroke-linecap:round;stroke-dasharray:none;stroke-dashoffset:0;stroke-opacity:1"
       d="M 582.68748,1231.3235 430.70578,1024.7058"
       id="path3-5-3-3-0" />
    <path
       style="fill:none;fill-opacity:1;stroke:#1a59cc;stroke-width:7.41155;stroke-linecap:round;stroke-dasharray:none;stroke-dashoffset:0;stroke-opacity:1"
       d="M 592.68748,1226.3235 440.70578,1019.7058"
       id="path3-5-3-3-4" />
    <path
       style="fill:none;fill-opacity:1;stroke:#1a59cc;stroke-width:7.41155;stroke-linecap:round;stroke-dasharray:none;stroke-dashoffset:0;stroke-opacity:1"
       d="M 808.6875,1112.3235 656.7058,905.7058"
       id="path3-5-3-3-6" />
    <path
       style="fill:none;fill-opacity:1;stroke:#62acd3;stroke-width:7.41155;stroke-linecap:round;stroke-dasharray:none;stroke-opacity:1"
       d="M 783.9915,928.7058 147.70578,1265.4645"
       id="path2-7-0" />
    <path
       style="fill:none;fill-opacity:1;stroke:#62acd3;stroke-width:7.41155;stroke-linecap:round;stroke-dasharray:none;stroke-opacity:1"
       d="M 846.9915,981.7058 210.70578,1318.4645"
       id="path2-7-0-5" />
    <path
       style="fill:none;fill-opacity:1;stroke:#62acd3;stroke-width:7.41155;stroke-linecap:round;stroke-dasharray:none;stroke-opacity:1"
       d="M 787.9915,888.7058 151.70578,1225.4645"
       id="path2-7" />
    <path
       style="fill:none;fill-opacity:1;stroke:#62acd3;stroke-width:7.41155;stroke-linecap:round;stroke-dasharray:none;stroke-opacity:1"
       d="M 846.9915,1017.7058 210.70578,1354.4645"
       id="path2-7-0-5-4" />
    <path
       style="fill:none;fill-opacity:1;stroke:#1a59cc;stroke-width:7.41155;stroke-linecap:round;stroke-dasharray:none;stroke-dashoffset:0;stroke-opacity:1"
       d="M 813.6875,576.32354 661.7058,369.70578"
       id="path3-5-3-40" />
    <path
       style="fill:none;fill-opacity:1;stroke:#1a59cc;stroke-width:7.47591;stroke-linecap:round;stroke-dasharray:none"
       d="m 346.04047,831.643 v 537.5059"
       id="path1" />
    <path
       style="fill:none;fill-opacity:1;stroke:#62acd3;stroke-width:7.47591;stroke-linecap:round;stroke-dasharray:none;stroke-opacity:1"
       d="m 210.65019,1316.3447 v 37.648"
       id="path1-8"
       sodipodi:nodetypes="cc" />
    <path
       style="fill:none;fill-opacity:1;stroke:#62acd3;stroke-width:7.47591;stroke-linecap:round;stroke-dasharray:none;stroke-opacity:1"
       d="m 145.73796,1227.738 v 37.648"
       id="path1-8-3"
       sodipodi:nodetypes="cc" />
    <path
       style="fill:none;fill-opacity:1;stroke:#62acd3;stroke-width:7.47591;stroke-linecap:round;stroke-dasharray:none;stroke-opacity:1"
       d="m 782.738,892.738 v 37.648"
       id="path1-8-3-4"
       sodipodi:nodetypes="cc" />
    <path
       style="fill:none;fill-opacity:1;stroke:#62acd3;stroke-width:7.47591;stroke-linecap:round;stroke-dasharray:none;stroke-opacity:1"
       d="m 845.738,980.738 v 37.648"
       id="path1-8-3-8"
       sodipodi:nodetypes="cc" />
    <path
       style="fill:none;fill-opacity:1;stroke:#1a59cc;stroke-width:7.47591;stroke-linecap:round;stroke-dasharray:none"
       d="M 182.77718,624.23722 V 1161.7431"
       id="path1-17" />
    <path
       style="fill:none;fill-opacity:1;stroke:#1a59cc;stroke-width:7.47591;stroke-linecap:round;stroke-dasharray:none"
       d="M 435.73796,485.73796 V 1023.2438"
       id="path1-17-2" />
    <path
       style="fill:none;fill-opacity:1;stroke:#1a59cc;stroke-width:7.47591;stroke-linecap:round;stroke-dasharray:none"
       d="M 443.73796,479.73796 V 1017.2438"
       id="path1-17-9" />
    <path
       style="fill:none;fill-opacity:1;stroke:#1a59cc;stroke-width:7.47591;stroke-linecap:round;stroke-dasharray:none"
       d="M 657.73796,364.73796 V 902.2438"
       id="path1-17-3" />
    <path
       style="fill:none;fill-opacity:1;stroke:#1a59cc;stroke-width:7.47591;stroke-linecap:round;stroke-dasharray:none"
       d="m 588.73796,695.738 v 537.5059"
       id="path1-3" />
    <path
       style="fill:none;fill-opacity:1;stroke:#1a59cc;stroke-width:7.47591;stroke-linecap:round;stroke-dasharray:none"
       d="m 597.73796,686.738 v 537.5059"
       id="path1-3-9" />
    <path
       style="fill:none;fill-opacity:1;stroke:#1a59cc;stroke-width:7.47;stroke-linecap:round;stroke-dasharray:none;stroke-dashoffset:0;stroke-opacity:1"
       d="M 434.70839,487.59618 183.03566,621.19823"
       id="path2-6-5-7-8-67"
       sodipodi:nodetypes="cc" />
    <path
       style="fill:none;fill-opacity:1;stroke:#1a59cc;stroke-width:7.47;stroke-linecap:round;stroke-dasharray:none;stroke-dashoffset:0;stroke-opacity:1"
       d="M 661.36878,365.56779 447.735,477.33705"
       id="path2-6-5-7-8-67-6"
       sodipodi:nodetypes="cc" />
    <path
       style="fill:none;fill-opacity:1;stroke:#33a02c;stroke-width:7.47591;stroke-linecap:round;stroke-dasharray:none;stroke-opacity:1"
       d="M 351.73796,562.88761 V 1100.3936"
       id="path1-3-5" />
    <path
       style="fill:none;fill-opacity:1;stroke:#33a02c;stroke-width:7.47591;stroke-linecap:round;stroke-dasharray:none;stroke-opacity:1"
       d="M 190.73796,360.73796 V 898.244"
       id="path1-3-5-9" />
    <path
       style="fill:none;fill-opacity:1;stroke:#33a02c;stroke-width:7.47591;stroke-linecap:round;stroke-dasharray:none;stroke-opacity:1"
       d="M 450.73796,232.73796 V 770.2439"
       id="path1-3-5-0-7-3-3" />
    <path
       style="fill:none;fill-opacity:1;stroke:#1a59cc;stroke-width:7.41155;stroke-linecap:round;stroke-dasharray:none;stroke-dashoffset:0;stroke-opacity:1"
       d="M 594.68748,687.32354 442.70578,480.70578"
       id="path3-5-3-40-6" />
    <path
       style="fill:none;fill-opacity:1;stroke:#1a59cc;stroke-width:7.41155;stroke-linecap:round;stroke-dasharray:none;stroke-dashoffset:0;stroke-opacity:1"
       d="M 587.68748,691.32354 435.70578,484.70578"
       id="path3-5-3-40-6-0" />
    <path
       style="fill:none;fill-opacity:1;stroke:#1a59cc;stroke-width:7.41155;stroke-linecap:round;stroke-dasharray:none;stroke-dashoffset:0;stroke-opacity:1"
       d="M 342.68748,835.3235 190.70578,628.70578"
       id="path3-5-3-40-6-0-9" />
    <path
       style="fill:none;fill-opacity:1;stroke:#33a02c;stroke-width:7.47591;stroke-linecap:round;stroke-dasharray:none;stroke-opacity:1"
       d="M 604.73796,433.48516 V 970.9912"
       id="path1-3-5-0-6" />
    <path
       style="fill:none;fill-opacity:1;stroke:#33a02c;stroke-width:7.47591;stroke-linecap:round;stroke-dasharray:none;stroke-opacity:1"
       d="M 804.738,324.58831 V 862.0942"
       id="path1-3-5-0-7" />
    <path
       style="fill:none;fill-opacity:1;stroke:#33a02c;stroke-width:7.476;stroke-linecap:round;stroke-dasharray:none;stroke-dashoffset:0;stroke-opacity:1"
       d="M 652.738,122.73796 V 660.2439"
       id="path1-3-5-0-7-3" />
    <path
       style="fill:none;fill-opacity:1;stroke:#33a02c;stroke-width:7.47591;stroke-linecap:round;stroke-dasharray:none;stroke-opacity:1"
       d="M 428.73796,241.73796 V 779.2439"
       id="path1-3-5-0-7-3-1" />
    <path
       style="fill:none;fill-opacity:1;stroke:#62acd3;stroke-width:7.41155;stroke-linecap:round;stroke-dasharray:none;stroke-opacity:1"
       d="M 254.16448,1379.4123 102.18281,1172.7945"
       id="path3" />
    <path
       style="fill:none;fill-opacity:1;stroke:#62acd3;stroke-width:7.41155;stroke-linecap:round;stroke-dasharray:none;stroke-dashoffset:0;stroke-opacity:1"
       d="M 894.7465,1037.9752 742.7648,831.3574"
       id="path3-5" />
    <path
       style="fill:none;fill-opacity:1;stroke:#62acd3;stroke-width:7.41155;stroke-linecap:round;stroke-dasharray:none;stroke-opacity:1"
       d="M 890.4502,1042.6536 254.16448,1379.4123"
       id="path2" />
    <path
       style="fill:none;fill-opacity:1;stroke:#62acd3;stroke-width:7.78961;stroke-linecap:round;stroke-dasharray:none;stroke-dashoffset:0;stroke-opacity:1"
       d="M 745.4863,831.7058 109.20053,1168.4645"
       id="path2-2" />
    <path
       style="fill:none;fill-opacity:1;stroke:#62acd3;stroke-width:7.41155;stroke-linecap:round;stroke-dasharray:none;stroke-opacity:1"
       d="M 254.16448,1163.9485 102.18281,957.3307"
       id="path3-7" />
    <path
       style="fill:none;fill-opacity:1;stroke:#62acd3;stroke-width:7.41155;stroke-linecap:round;stroke-dasharray:none;stroke-opacity:1"
       d="M 337.68745,1112.3236 185.70578,905.7058"
       id="path3-7-3" />
    <path
       style="fill:none;fill-opacity:1;stroke:#62acd3;stroke-width:7.41155;stroke-linecap:round;stroke-dasharray:none;stroke-opacity:1"
       d="M 336.68745,1328.3236 184.70578,1121.7058"
       id="path3-7-0" />
    <path
       style="fill:none;fill-opacity:1;stroke:#62acd3;stroke-width:7.41155;stroke-linecap:round;stroke-dasharray:none;stroke-dashoffset:0;stroke-opacity:1"
       d="M 894.7465,822.5114 742.7648,615.89364"
       id="path3-5-3" />
    <path
       style="fill:none;fill-opacity:1;stroke:#62acd3;stroke-width:7.41155;stroke-linecap:round;stroke-dasharray:none;stroke-opacity:1"
       d="M 890.4502,827.1898 254.16448,1163.9485"
       id="path2-6" />
    <path
       style="fill:none;fill-opacity:1;stroke:#62acd3;stroke-width:7.78961;stroke-linecap:round;stroke-dasharray:none;stroke-dashoffset:0;stroke-opacity:1"
       d="M 745.4863,616.24204 109.20053,953.0007"
       id="path2-2-1" />
    <path
       style="fill:none;fill-opacity:1;stroke:#9be559;stroke-width:7.41155;stroke-linecap:round;stroke-dasharray:none;stroke-opacity:1"
       d="M 254.16448,879.0835 102.18281,672.4657"
       id="path3-7-7" />
    <path
       style="fill:none;fill-opacity:1;stroke:#9be559;stroke-width:7.41155;stroke-linecap:round;stroke-dasharray:none;stroke-opacity:1"
       d="M 345.68745,825.3236 193.70578,618.70578"
       id="path3-7-7-6" />
    <path
       style="fill:none;fill-opacity:1;stroke:#9be559;stroke-width:7.41155;stroke-linecap:round;stroke-dasharray:none;stroke-opacity:1"
       d="M 346.68745,597.32358 194.70578,390.70578"
       id="path3-7-7-0" />
    <path
       style="fill:none;fill-opacity:1;stroke:#62acd3;stroke-width:7.41155;stroke-linecap:round;stroke-dasharray:none;stroke-opacity:1"
       d="M 584.68745,991.3236 432.70578,784.7058"
       id="path3-7-3-7" />
    <path
       style="fill:none;fill-opacity:1;stroke:#62acd3;stroke-width:7.41155;stroke-linecap:round;stroke-dasharray:none;stroke-opacity:1"
       d="M 583.68745,1207.3236 431.70578,1000.7058"
       id="path3-7-0-2" />
    <path
       style="fill:none;fill-opacity:1;stroke:#9be559;stroke-width:7.41155;stroke-linecap:round;stroke-dasharray:none;stroke-opacity:1"
       d="M 578.68745,706.3236 426.70578,499.70578"
       id="path3-7-7-6-7" />
    <path
       style="fill:none;fill-opacity:1;stroke:#9be559;stroke-width:7.41155;stroke-linecap:round;stroke-dasharray:none;stroke-opacity:1"
       d="M 604.09482,687.96361 452.11312,481.34579"
       id="path3-7-7-6-7-9" />
    <path
       style="fill:none;fill-opacity:1;stroke:#33a02c;stroke-width:7.47591;stroke-linecap:round;stroke-dasharray:none;stroke-opacity:1"
       d="m 582.73796,445.0582 v 537.506"
       id="path1-3-5-0" />
    <path
       style="fill:none;fill-opacity:1;stroke:#9be559;stroke-width:7.41155;stroke-linecap:round;stroke-dasharray:none;stroke-opacity:1"
       d="M 602.68748,463.3236 450.70578,256.70578"
       id="path3-7-7-6-7-9-8" />
    <path
       style="fill:none;fill-opacity:1;stroke:#9be559;stroke-width:7.41155;stroke-linecap:round;stroke-dasharray:none;stroke-opacity:1"
       d="M 579.68745,478.32358 427.70578,271.70578"
       id="path3-7-7-0-2" />
    <path
       style="fill:none;fill-opacity:1;stroke:#62acd3;stroke-width:7.41155;stroke-linecap:round;stroke-dasharray:none;stroke-opacity:1"
       d="M 805.6875,870.3236 653.70578,663.7058"
       id="path3-7-3-7-6" />
    <path
       style="fill:none;fill-opacity:1;stroke:#62acd3;stroke-width:7.41155;stroke-linecap:round;stroke-dasharray:none;stroke-opacity:1"
       d="M 804.6875,1086.3236 652.70578,879.7058"
       id="path3-7-0-2-1" />
    <path
       style="fill:none;fill-opacity:1;stroke:#9be559;stroke-width:7.41155;stroke-linecap:round;stroke-dasharray:none;stroke-opacity:1"
       d="M 799.6875,585.3236 647.70578,378.70578"
       id="path3-7-7-6-7-5" />
    <path
       style="fill:none;fill-opacity:1;stroke:#9be559;stroke-width:7.41155;stroke-linecap:round;stroke-dasharray:none;stroke-opacity:1"
       d="M 800.6875,357.32358 648.70578,150.70578"
       id="path3-7-7-0-2-9" />
    <path
       style="fill:none;fill-opacity:1;stroke:#9be559;stroke-width:7.41155;stroke-linecap:round;stroke-dasharray:none;stroke-dashoffset:0;stroke-opacity:1"
       d="M 894.7465,537.6464 742.7648,331.0286"
       id="path3-5-3-4" />
    <path
       style="fill:none;fill-opacity:1;stroke:#9be559;stroke-width:7.78961;stroke-linecap:round;stroke-dasharray:none;stroke-dashoffset:0;stroke-opacity:1"
       d="M 745.4863,331.377 109.20053,668.1357"
       id="path2-2-1-2" />
    <path
       style="fill:none;fill-opacity:1;stroke:#9be559;stroke-width:7.41155;stroke-linecap:round;stroke-dasharray:none;stroke-opacity:1"
       d="M 254.16448,650.6013 102.18281,443.9835"
       id="path3-7-7-3" />
    <path
       style="fill:none;fill-opacity:1;stroke:#9be559;stroke-width:7.41155;stroke-linecap:round;stroke-dasharray:none;stroke-dashoffset:0;stroke-opacity:1"
       d="M 894.7465,309.1642 742.7648,102.5464"
       id="path3-5-3-4-0" />
    <path
       style="fill:none;fill-opacity:1;stroke:#9be559;stroke-width:7.41155;stroke-linecap:round;stroke-dasharray:none;stroke-opacity:1"
       d="M 890.4502,313.8426 254.16448,650.6013"
       id="path2-6-5-7" />
    <path
       style="fill:none;fill-opacity:1;stroke:#33a02c;stroke-width:7.47;stroke-linecap:round;stroke-dasharray:none;stroke-dashoffset:0;stroke-opacity:1"
       d="M 427.39628,243.95227 189.15925,362.65294"
       id="path2-6-5-7-8" />
    <path
       style="fill:none;fill-opacity:1;stroke:#33a02c;stroke-width:7.47;stroke-linecap:round;stroke-dasharray:none;stroke-dashoffset:0;stroke-opacity:1"
       d="M 652.40798,123.57906 449.24057,228.40569"
       id="path2-6-5-7-8-4"
       sodipodi:nodetypes="cc" />
    <path
       style="fill:none;fill-opacity:1;stroke:#9be559;stroke-width:7.78961;stroke-linecap:round;stroke-dasharray:none;stroke-dashoffset:0;stroke-opacity:1"
       d="M 745.4863,102.8948 109.20053,439.6535"
       id="path2-2-1-2-8" />
    <path
       style="fill:none;fill-opacity:1;stroke:#33a02c;stroke-width:7.47;stroke-linecap:round;stroke-dasharray:none;stroke-dashoffset:0;stroke-opacity:1"
       d="M 195.735,363.735 349.40673,564.5287 M 198.67932,371.93457"
       id="path2-6-5-7-8-6-9-4"
       sodipodi:nodetypes="cc" />
    <path
       style="fill:none;fill-opacity:1;stroke:#33a02c;stroke-width:7.47;stroke-linecap:round;stroke-dasharray:none;stroke-dashoffset:0;stroke-opacity:1"
       d="m 426.38964,242.43805 153.67173,200.7937 M 429.33396,250.63762"
       id="path2-6-5-7-8-6"
       sodipodi:nodetypes="cc" />
    <path
       style="fill:none;fill-opacity:1;stroke:#33a02c;stroke-width:7.47;stroke-linecap:round;stroke-dasharray:none;stroke-dashoffset:0;stroke-opacity:1"
       d="M 450.735,232.735 604.40673,433.5287 M 453.67932,240.93457"
       id="path2-6-5-7-8-6-9"
       sodipodi:nodetypes="cc" />
    <path
       style="fill:none;fill-opacity:1;stroke:#33a02c;stroke-width:7.47;stroke-linecap:round;stroke-dasharray:none;stroke-dashoffset:0;stroke-opacity:1"
       d="M 650.735,123.735 804.4067,324.5287 M 653.67932,131.93457"
       id="path2-6-5-7-8-6-8"
       sodipodi:nodetypes="cc" />
    <path
       style="fill:#1f78b4;fill-opacity:1;stroke:#1a59cc;stroke-width:7.47591;stroke-linecap:round;stroke-dasharray:none"
       d="m 811.738,575.738 v 537.5059"
       id="path1-1" />
    <path
       style="fill:none;fill-opacity:1;stroke:#9be559;stroke-width:7.41155;stroke-linecap:round;stroke-dasharray:none;stroke-opacity:1"
       d="M 890.4502,542.3248 254.16448,879.0835"
       id="path2-6-5" />
    <path
       style="fill:#9be559;fill-opacity:1;stroke:none;stroke-width:7.73997;stroke-linecap:round;stroke-dasharray:none;stroke-dashoffset:0;stroke-opacity:1"
       d="m 146.69331,497.23974 c -30.76491,-41.81629 -38.6898,-53.21254 -37.17533,-53.45931 1.05864,-0.1725 18.6537,-9.13406 39.10013,-19.91459 l 37.17533,-19.60095 0.27221,36.15771 c 0.14971,19.88674 0.14971,52.76386 0,73.06026 l -0.27221,36.90256 z"
       id="path75" />
    <path
       style="fill:#9be559;fill-opacity:1;stroke:none;stroke-width:7.73997;stroke-linecap:round;stroke-dasharray:none;stroke-dashoffset:0;stroke-opacity:1"
       d="m 207.2091,579.51761 -12.60846,-17.26228 v -81.82392 c 0,-58.75978 0.31649,-81.50745 1.1228,-80.70113 1.64028,1.64027 110.73314,149.95543 110.7501,150.56823 0.0125,0.44988 -15.93717,9.02413 -73.58833,39.5599 l -13.06764,6.92147 z"
       id="path76" />
    <path
       style="fill:#9be559;fill-opacity:1;stroke:none;stroke-width:7.73997;stroke-linecap:round;stroke-dasharray:none;stroke-dashoffset:0;stroke-opacity:1"
       d="m 276.08158,461.57999 c -46.36678,-60.5802 -56.54558,-74.44478 -55.41194,-75.47678 0.7638,-0.69532 43.58557,-23.55186 95.15949,-50.7923 51.57391,-27.24044 97.15338,-51.36905 101.2877,-53.61913 l 7.51694,-4.09105 -0.26396,105.36312 -0.26395,105.36313 -44.55406,23.70018 c -24.50474,13.0351 -45.03005,23.71485 -45.61181,23.73278 -0.58175,0.0179 -26.61804,-33.36305 -57.85841,-74.17995 z"
       id="path78" />
    <path
       style="fill:#9be559;fill-opacity:1;stroke:none;stroke-width:7.73997;stroke-linecap:round;stroke-dasharray:none;stroke-dashoffset:0;stroke-opacity:1"
       d="m 242.43316,627.38483 c -7.01082,-9.49376 -12.36503,-17.62984 -11.89824,-18.08019 0.82184,-0.79288 85.11662,-45.5363 85.78854,-45.5363 0.64568,0 25.40899,34.0055 25.39337,34.87071 -0.014,0.7731 -82.63541,44.98685 -85.43369,45.71868 -0.60666,0.15866 -6.83915,-7.47915 -13.84998,-16.9729 z"
       id="path79" />
    <path
       style="fill:#9be559;fill-opacity:1;stroke:none;stroke-width:7.73997;stroke-linecap:round;stroke-dasharray:none;stroke-dashoffset:0;stroke-opacity:1"
       d="m 356.23862,577.17384 c 0,-15.09903 -0.76763,-18.58621 -4.09138,-18.58621 -1.08776,0 -3.36014,-1.92268 -5.15184,-4.359 -2.53219,-3.44325 -2.93196,-4.60672 -1.90288,-5.53812 1.33302,-1.20651 78.10563,-41.90992 79.04825,-41.90992 0.28636,0 0.39566,11.03957 0.24287,24.53238 l -0.27778,24.53239 -21.75896,11.49794 c -11.96743,6.32387 -27.23756,14.4028 -33.93362,17.95318 l -12.17466,6.45523 z"
       id="path80" />
    <path
       style="fill:#9be559;fill-opacity:1;stroke:none;stroke-width:7.73997;stroke-linecap:round;stroke-dasharray:none;stroke-dashoffset:0;stroke-opacity:1"
       d="m 456.93915,533.76221 c -1.75713,-2.37664 -2.26714,-4.50795 -2.26714,-9.47427 v -6.4078 l 3.42254,4.5526 c 1.8824,2.50393 4.46382,6.0472 5.7365,7.87394 l 2.31395,3.32134 -3.09468,1.60033 c -3.90586,2.01979 -3.45371,2.12827 -6.11117,-1.46614 z"
       id="path81" />
    <path
       style="fill:#9be559;fill-opacity:1;stroke:none;stroke-width:7.73997;stroke-linecap:round;stroke-dasharray:none;stroke-dashoffset:0;stroke-opacity:1"
       d="m 474.87676,505.1518 c -6.83853,-9.39717 -12.55328,-17.43014 -12.69945,-17.85104 -0.26142,-0.75276 84.69094,-46.21244 85.20597,-45.59539 2.42434,2.90459 24.62508,33.45778 24.9458,34.331 0.26597,0.72416 -16.56266,10.205 -41.69731,23.49123 -23.1788,12.25237 -42.40833,22.37444 -42.73229,22.4935 -0.32397,0.11906 -6.18419,-7.47212 -13.02272,-16.8693 z"
       id="path82" />
    <path
       style="fill:#9be559;fill-opacity:1;stroke:none;stroke-width:7.73997;stroke-linecap:round;stroke-dasharray:none;stroke-dashoffset:0;stroke-opacity:1"
       d="m 454.67201,392.23363 c 0,-74.58213 0.0453,-76.3242 1.92151,-73.91139 5.50283,7.07663 78.17756,106.22161 78.52425,107.12509 0.30191,0.78677 -73.90266,40.75242 -79.51051,42.82335 -0.5509,0.20344 -0.93525,-31.0443 -0.93525,-76.03705 z"
       id="path83" />
    <path
       style="fill:#9be559;fill-opacity:1;stroke:none;stroke-width:7.73997;stroke-linecap:round;stroke-dasharray:none;stroke-dashoffset:0;stroke-opacity:1"
       d="m 432.91305,383.93674 c 0,-53.31718 0.36693,-96.71356 0.8154,-96.43639 0.44846,0.27717 3.47918,4.20361 6.73491,8.72544 l 5.91953,8.22149 v 84.14434 c 0,87.64506 0.0251,87.10474 -4.04667,87.10474 -0.59745,0 -1.85004,1.16566 -2.78353,2.59035 -1.02513,1.56454 -2.67588,2.59035 -4.16845,2.59035 h -2.47119 z"
       id="path84" />
    <path
       style="fill:#9be559;fill-opacity:1;stroke:none;stroke-width:7.73997;stroke-linecap:round;stroke-dasharray:none;stroke-dashoffset:0;stroke-opacity:1"
       d="m 528.9889,327.88839 c -30.64534,-40.07149 -55.93503,-73.44746 -56.1993,-74.16882 -0.31457,-0.85864 29.63682,-17.23469 86.72972,-47.41986 47.96562,-25.35954 87.59291,-46.26369 88.06064,-46.45365 0.46772,-0.18996 0.85041,46.45647 0.85041,103.65874 v 104.0041 l -15.28308,7.97618 c -8.40569,4.38689 -22.74329,11.86516 -31.86133,16.61836 l -16.57826,8.64219 z"
       id="path85" />
    <path
       style="fill:#9be559;fill-opacity:1;stroke:none;stroke-width:7.73997;stroke-linecap:round;stroke-dasharray:none;stroke-dashoffset:0;stroke-opacity:1"
       d="m 687.61358,397.62139 c -5.51323,-7.49293 -11.42016,-15.50158 -13.1265,-17.79701 l -3.10246,-4.1735 22.97458,-12.14528 c 12.636,-6.6799 28.6632,-15.16147 35.6159,-18.84793 l 12.6414,-6.70265 12.9987,17.75881 c 7.1492,9.76735 12.8841,17.83759 12.744,17.93386 -0.14,0.0963 -14.2425,7.53244 -31.3388,16.52481 -17.0963,8.99238 -32.9514,17.41237 -35.2335,18.71109 l -4.1493,2.36131 z"
       id="path86" />
    <path
       style="fill:#9be559;fill-opacity:1;stroke:none;stroke-width:7.73997;stroke-linecap:round;stroke-dasharray:none;stroke-dashoffset:0;stroke-opacity:1"
       d="m 763.4412,351.87644 c -6.9303,-9.40357 -13.051,-18.72884 -13.6015,-20.72282 -0.6889,-2.49484 -1.6057,-3.62542 -2.9399,-3.62542 -1.0664,0 -2.6403,-0.26917 -3.4977,-0.59818 -0.8573,-0.329 -2.4713,0.31426 -3.5865,1.42946 -2.1068,2.1068 -72.06575,39.57822 -73.89232,39.57822 -0.57033,0 -0.75474,-0.45663 -0.40982,-1.01472 1.21256,-1.96198 -1.5237,-4.96826 -5.13939,-5.64657 l -3.65457,-0.6856 v -95.50004 c 0,-81.79039 0.20778,-95.28224 1.44741,-93.98284 2.69562,2.82561 137.39549,186.48037 137.39549,187.33008 0,0.75991 -17.5848,10.53583 -18.9518,10.53583 -0.3128,0 -6.2391,-7.69383 -13.1694,-17.0974 z"
       id="path87" />
    <path
       style="fill:#9be559;fill-opacity:1;stroke:none;stroke-width:7.73997;stroke-linecap:round;stroke-dasharray:none;stroke-dashoffset:0;stroke-opacity:1"
       d="M 672.00258,404.64444 C 662.44037,391.44466 661.9002,390.4229 661.9002,385.5352 c 0,-3.46315 0.42656,-5.14969 1.29518,-5.12094 0.71234,0.0236 6.97406,7.8335 13.91491,17.35536 l 12.61974,17.31249 -3.29447,1.76982 c -1.81196,0.9734 -3.5276,1.76265 -3.81254,1.75388 -0.28494,-0.009 -5.06414,-6.29138 -10.62044,-13.96137 z"
       id="path88" />
    <path
       style="fill:#9be559;fill-opacity:1;stroke:none;stroke-width:1.45826;stroke-linecap:round;stroke-dasharray:none;stroke-dashoffset:0;stroke-opacity:1"
       d="m 608.487,445.65328 c 0,-8.70003 -0.0689,-13.25741 -0.20612,-13.62312 -0.11337,-0.30226 -0.63377,-0.98879 -1.15643,-1.52563 -0.52267,-0.53684 -3.36702,-4.13856 -6.32079,-8.00382 -4.04305,-5.29069 -5.31333,-7.0807 -5.13925,-7.24202 0.16228,-0.15038 48.56944,-25.80193 52.89049,-28.02731 0.3245,-0.16712 0.34163,1.08522 0.34163,24.98288 v 25.15883 l -19.86314,10.50436 c -10.92472,5.7774 -20.01686,10.58199 -20.20476,10.67688 -0.32367,0.16346 -0.34163,-0.51445 -0.34163,-12.90105 z"
       id="path89" />
    <path
       style="fill:#9be559;fill-opacity:1;stroke:none;stroke-width:1.45826;stroke-linecap:round;stroke-dasharray:none;stroke-dashoffset:0;stroke-opacity:1"
       d="m 661.58551,417.31087 v -13.29688 l 7.01655,9.53618 c 3.85911,5.24491 6.95186,9.60153 6.87278,9.6814 -0.13633,0.13768 -10.38029,5.60047 -12.76684,6.80817 l -1.12249,0.56802 z"
       id="path90" />
    <path
       style="fill:#9be559;fill-opacity:1;stroke:none;stroke-width:1.45826;stroke-linecap:round;stroke-dasharray:none;stroke-dashoffset:0;stroke-opacity:1"
       d="m 586.62291,459.07101 c 0,-6.13789 0.03,-11.1232 0.0666,-11.07846 0.58213,0.71104 11.49638,15.68701 11.56749,15.87232 0.0681,0.17751 -1.72375,1.22354 -5.67469,3.31268 -3.17583,1.67929 -5.8159,3.05325 -5.86682,3.05325 -0.0509,0 -0.0926,-5.0219 -0.0926,-11.15979 z"
       id="path91" />
    <path
       style="fill:#9be559;fill-opacity:1;stroke:none;stroke-width:3.67625;stroke-linecap:round;stroke-dasharray:none;stroke-dashoffset:0;stroke-opacity:1"
       d="m 808.6232,337.94427 v -14.76615 l -1.1612,-1.39113 c -0.6387,-0.76512 -29.7944,-38.81801 -64.7905,-84.56197 -34.996,-45.74396 -65.02483,-84.96939 -66.73063,-87.16762 l -3.10147,-3.99677 34.6416,-18.33123 c 19.0529,-10.08218 34.8218,-18.31271 35.0419,-18.29008 0.2201,0.0226 33.5257,45.06105 74.0124,100.08536 l 73.6121,100.04421 -2.7446,1.41535 c -4.0966,2.11247 -70.0192,36.98927 -74.7195,39.53079 l -4.0601,2.19539 z"
       id="path92" />
    <path
       style="fill:#9be559;fill-opacity:1;stroke:none;stroke-width:3.67625;stroke-linecap:round;stroke-dasharray:none;stroke-dashoffset:0;stroke-opacity:1"
       d="m 817.4816,575.6087 c 0,-0.46329 -1.9931,-3.56989 -4.4292,-6.90355 l -4.4292,-6.06119 v -67.68638 c 0,-37.2275 0.077,-67.59409 0.172,-67.48131 1.9764,2.35674 81.0303,110.34585 81.0303,110.68901 0,0.27089 -0.2172,0.49252 -0.4827,0.49252 -0.2654,0 -16.5428,8.50349 -36.1719,18.89663 -26.653,14.11216 -35.6893,18.68335 -35.6893,18.05427 z"
       id="path93" />
    <path
       style="fill:#9be559;fill-opacity:1;stroke:none;stroke-width:3.67625;stroke-linecap:round;stroke-dasharray:none;stroke-dashoffset:0;stroke-opacity:1"
       d="m 661.48148,547.63927 0.007,-108.1467 9.12544,-4.83012 c 5.019,-2.65657 9.32201,-4.76045 9.56226,-4.67529 0.4975,0.17635 116.24952,157.45142 116.03662,157.66175 -0.076,0.0754 -10.8701,5.81133 -23.9863,12.74659 -20.9758,11.09111 -23.9983,12.55328 -25.0989,12.14207 -3.1284,-1.16879 -7.8951,-0.18781 -7.8951,1.62479 0,0.39556 -16.0869,9.19385 -38.6718,21.15047 -21.26948,11.26023 -38.76489,20.47314 -38.87868,20.47314 -0.1138,0 -0.2039,-48.66602 -0.20022,-108.1467 z"
       id="path94" />
    <path
       style="fill:#9be559;fill-opacity:1;stroke:none;stroke-width:3.67625;stroke-linecap:round;stroke-dasharray:none;stroke-dashoffset:0;stroke-opacity:1"
       d="M 608.81634,575.65923 V 467.39047 l 19.71687,-10.43152 c 10.84429,-5.73734 19.81148,-10.33692 19.9271,-10.22131 0.11562,0.11562 0.26755,48.73679 0.33763,108.04704 l 0.12741,107.83681 -16.97866,8.97451 c -9.33827,4.93598 -18.3628,9.72994 -20.05451,10.65325 l -3.07584,1.67875 z"
       id="path95" />
    <path
       style="fill:#9be559;fill-opacity:1;stroke:none;stroke-width:3.67625;stroke-linecap:round;stroke-dasharray:none;stroke-dashoffset:0;stroke-opacity:1"
       d="M 454.77803,657.07291 V 549.10584 l 1.12001,-0.73386 c 1.10801,-0.72599 1.73057,0.0961 58.08063,76.69886 31.32834,42.58799 57.06053,77.71747 57.18264,78.06551 0.14692,0.41874 -19.38926,10.99606 -57.75198,31.26821 -31.8857,16.84948 -58.1219,30.63541 -58.30265,30.63541 -0.18076,0 -0.32865,-48.58518 -0.32865,-107.96706 z"
       id="path96" />
    <path
       style="fill:#9be559;fill-opacity:1;stroke:none;stroke-width:0.251849;stroke-linecap:round;stroke-dasharray:none;stroke-dashoffset:0;stroke-opacity:1"
       d="m 591.32594,693.02368 -0.22157,-0.22148 0.0815,-0.21915 c 0.27277,-0.73337 0.28337,-1.70004 0.0269,-2.45406 -0.17896,-0.52615 -0.35322,-0.78378 -2.54754,-3.7663 l -2.15802,-2.93317 -3e-5,-0.46843 -3e-5,-0.46843 0.11157,0.14814 c 0.0614,0.0815 1.24854,1.69528 2.63817,3.58624 1.38964,1.89095 2.62381,3.54144 2.74261,3.66774 0.28303,0.30091 0.58693,0.52695 0.98087,0.72958 0.31087,0.1599 0.81234,0.34039 0.94575,0.34039 0.0622,0 0.0657,0.027 0.0656,0.51415 l -6e-5,0.51415 -1.19347,0.63215 c -0.65641,0.34768 -1.20635,0.62941 -1.22209,0.62606 -0.0157,-0.003 -0.12833,-0.10576 -0.2502,-0.22758 z"
       id="path97" />
    <path
       style="fill:#9be559;fill-opacity:1;stroke:none;stroke-width:4.24454;stroke-linecap:round;stroke-dasharray:none;stroke-dashoffset:0;stroke-opacity:1"
       d="M 355.94334,709.47436 V 601.29113 l 34.01457,-18.0061 c 18.70801,-9.90336 34.17624,-18.00611 34.37385,-18.00611 0.19761,0 0.42452,48.55928 0.50425,107.90952 l 0.14497,107.90952 -29.83108,15.78994 c -16.40709,8.6844 -31.94056,16.9103 -34.51882,18.2798 l -4.68774,2.4899 z"
       id="path98" />
    <path
       style="fill:#9be559;fill-opacity:1;stroke:none;stroke-width:0.284873;stroke-linecap:round;stroke-dasharray:none;stroke-dashoffset:0;stroke-opacity:1"
       d="m 439.47926,723.3014 v -24.23518 h 0.24788 0.24788 v 24.23518 24.23519 h -0.24788 -0.24788 z"
       id="path99" />
    <path
       style="fill:#9be559;fill-opacity:1;stroke:none;stroke-width:6.86132;stroke-linecap:round;stroke-dasharray:none;stroke-dashoffset:0;stroke-opacity:1"
       d="m 224.29936,831.3347 -29.12596,-39.5668 0.23498,-74.60694 0.23498,-74.607 68.25842,92.8182 c 37.54212,51.05004 68.33539,93.18294 68.42948,93.62864 0.17068,0.8087 -76.12258,41.7808 -77.94513,41.8592 -0.52844,0.023 -14.06749,-17.7636 -30.08677,-39.5253 z"
       id="path100" />
    <path
       style="fill:#33a02c;fill-opacity:1;stroke:none;stroke-width:6.86132;stroke-linecap:round;stroke-dasharray:none;stroke-dashoffset:0;stroke-opacity:1"
       d="m 142.99935,720.8126 c -22.79204,-30.9908 -34.72453,-47.94876 -33.86492,-48.12745 0.73001,-0.15174 16.54072,-8.30639 35.13493,-18.12143 18.5942,-9.81504 33.9395,-17.71367 34.10067,-17.5525 0.16116,0.16116 0.18693,29.849 0.0573,65.97297 l -0.23575,65.67995 z"
       id="path101" />
    <path
       style="fill:#33a02c;fill-opacity:1;stroke:none;stroke-width:6.86132;stroke-linecap:round;stroke-dasharray:none;stroke-dashoffset:0;stroke-opacity:1"
       d="m 275.5543,722.84667 c -39.40436,-53.56095 -71.7633,-97.88387 -71.90877,-98.49539 -0.14546,-0.61152 3.85279,-3.26499 8.885,-5.89659 l 9.14947,-4.78475 7.67468,10.35671 c 4.22107,5.69619 10.91347,14.78721 14.87199,20.20225 3.95852,5.41505 7.92786,10.07741 8.82076,10.3608 1.04106,0.33043 18.17579,-8.24253 47.76539,-23.89828 25.37808,-13.42745 46.30188,-24.25362 46.49734,-24.05816 0.19546,0.19546 0.25031,48.33473 0.1219,106.97616 l -0.23347,106.62078 z"
       id="path102" />
    <path
       style="fill:#33a02c;fill-opacity:1;stroke:none;stroke-width:6.86132;stroke-linecap:round;stroke-dasharray:none;stroke-dashoffset:0;stroke-opacity:1"
       d="m 336.41871,576.23604 c -5.92893,-8.0621 -10.98819,-15.22372 -11.24279,-15.9147 -0.29975,-0.81351 1.42627,-2.27255 4.89683,-4.13941 l 5.35975,-2.88308 4.90605,6.43305 c 2.69833,3.53819 5.46189,6.9889 6.14125,7.66826 0.92951,0.9295 1.17129,3.98951 0.97699,12.36471 l -0.2582,11.12953 z"
       id="path103" />
    <path
       style="fill:#33a02c;fill-opacity:1;stroke:none;stroke-width:6.86132;stroke-linecap:round;stroke-dasharray:none;stroke-dashoffset:0;stroke-opacity:1"
       d="m 292.21534,516.10898 c -12.35203,-16.78891 -37.36832,-50.77859 -55.59176,-75.53261 -18.22344,-24.75402 -33.14237,-45.25454 -33.15318,-45.5567 -0.0108,-0.30216 1.65146,-1.30295 3.69393,-2.22398 3.20535,-1.44541 3.88604,-1.49593 4.97375,-0.36913 1.97384,2.04477 113.5354,148.06533 113.26086,148.24474 -0.13461,0.0879 -2.60288,1.4656 -5.48504,3.06144 l -5.24032,2.90153 z"
       id="path104" />
    <path
       style="fill:#33a02c;fill-opacity:1;stroke:none;stroke-width:10.2893;stroke-linecap:round;stroke-dasharray:none;stroke-dashoffset:0;stroke-opacity:1"
       d="m 529.19767,603.33658 c -38.94052,-53.14242 -48.23012,-66.63113 -46.9504,-68.17309 1.30877,-1.57697 1.91319,-1.60057 3.36452,-0.13141 0.97303,0.985 22.25568,29.66738 47.29476,63.73862 37.91222,51.58801 45.52561,62.70236 45.52561,66.46023 0,2.48189 -0.15496,4.4774 -0.34435,4.43447 -0.1894,-0.0429 -22.18996,-29.8909 -48.89014,-66.32882 z"
       id="path129" />
    <path
       style="fill:#33a02c;fill-opacity:1;stroke:none;stroke-width:6.86132;stroke-linecap:round;stroke-dasharray:none;stroke-dashoffset:0;stroke-opacity:1"
       d="m 535.58898,587.67266 c -23.18649,-31.53822 -42.15385,-57.69694 -42.14967,-58.13047 0.008,-0.84002 83.90907,-45.58107 84.45412,-45.03602 0.17722,0.17723 0.21661,36.36419 0.0875,80.41548 l -0.2347,80.09325 z"
       id="path105" />
    <path
       style="fill:#33a02c;fill-opacity:1;stroke:none;stroke-width:6.86132;stroke-linecap:round;stroke-dasharray:none;stroke-dashoffset:0;stroke-opacity:1"
       d="m 521.71674,621.86832 c -30.81623,-41.94555 -56.1471,-76.76915 -56.29082,-77.38577 -0.14372,-0.61662 1.14318,-1.79088 2.85976,-2.60946 l 3.12107,-1.48834 53.39938,72.60549 53.39938,72.60549 v 6.31227 c 0,3.47174 -0.10334,6.29263 -0.22963,6.26861 -0.1263,-0.024 -25.44291,-34.36273 -56.25914,-76.30829 z"
       id="path106" />
    <path
       style="fill:#33a02c;fill-opacity:1;stroke:none;stroke-width:6.86132;stroke-linecap:round;stroke-dasharray:none;stroke-dashoffset:0;stroke-opacity:1"
       d="m 593.12684,666.0236 -6.66381,-9.17885 0.23419,-88.78436 0.2342,-88.78435 6.65924,-3.58181 6.65925,-3.58181 v 101.57247 c 0,55.86485 -0.10334,101.5601 -0.22963,101.54501 -0.1263,-0.0151 -3.22835,-4.15793 -6.89344,-9.2063 z"
       id="path107" />
    <path
       style="fill:#33a02c;fill-opacity:1;stroke:none;stroke-width:6.86132;stroke-linecap:round;stroke-dasharray:none;stroke-dashoffset:0;stroke-opacity:1"
       d="m 751.9559,485.19773 c -26.3533,-35.82776 -48.113,-65.69103 -48.355,-66.36282 -0.2994,-0.83111 10.6751,-7.08154 34.3411,-19.55877 19.1295,-10.08552 35.1115,-18.35217 35.5155,-18.37033 0.404,-0.0182 6.6508,8.01703 13.8818,17.85597 l 13.1472,17.88899 v 66.84416 c 0,36.76429 -0.1385,66.84417 -0.3078,66.84417 -0.1693,0 -21.8696,-29.31362 -48.2228,-65.14137 z"
       id="path108" />
    <path
       style="fill:#33a02c;fill-opacity:1;stroke:none;stroke-width:1.32697;stroke-linecap:round;stroke-dasharray:none;stroke-dashoffset:0;stroke-opacity:1"
       d="m 744.1145,503.34502 c -31.2157,-42.43759 -56.8098,-77.25575 -56.8758,-77.37368 -0.0806,-0.14407 1.18961,-0.90467 3.8717,-2.31833 2.1955,-1.15716 4.0181,-2.07428 4.0503,-2.03806 0.032,0.0362 23.8509,32.41468 52.9304,71.95211 l 52.8719,71.88625 -0.046,7.5255 -0.046,7.52549 z"
       id="path111" />
    <path
       style="fill:#33a02c;fill-opacity:1;stroke:none;stroke-width:5.0337;stroke-linecap:round;stroke-dasharray:none;stroke-dashoffset:0;stroke-opacity:1"
       d="m 790.6656,389.29647 -9.5114,-12.95586 9.1745,-4.87122 c 5.046,-2.67917 9.4019,-4.87762 9.6799,-4.88545 0.278,-0.008 0.5054,8.0215 0.5054,17.84294 0,9.82145 -0.076,17.85003 -0.1685,17.84131 -0.093,-0.009 -4.4486,-5.846 -9.6799,-12.97172 z"
       id="path112" />
    <path
       style="fill:#33a02c;fill-opacity:1;stroke:none;stroke-width:2.18297;stroke-linecap:round;stroke-dasharray:none;stroke-dashoffset:0;stroke-opacity:1"
       d="m 735.3143,261.97308 c -35.9227,-48.85297 -65.49597,-89.08833 -65.71849,-89.41193 -0.40232,-0.58508 -0.3665,-0.58792 6.42855,-0.50982 l 6.83311,0.0785 58.94783,77.00316 58.9478,77.00316 0.011,12.34681 c 0.01,6.79074 -0.022,12.33935 -0.062,12.33023 -0.04,-0.009 -29.4643,-39.98719 -65.3869,-88.84015 z"
       id="path113" />
    <path
       style="fill:#33a02c;fill-opacity:1;stroke:none;stroke-width:2.18297;stroke-linecap:round;stroke-dasharray:none;stroke-dashoffset:0;stroke-opacity:1"
       d="m 566.62499,407.75395 c -0.86524,-1.17184 -25.02928,-34.02045 -53.69785,-72.99691 -28.66857,-38.97646 -52.81021,-71.79387 -53.64809,-72.92758 l -1.52341,-2.06129 3.11421,-1.6491 3.11421,-1.64911 56.68938,74.07131 c 31.17915,40.73922 56.72292,74.16924 56.76392,74.28893 0.041,0.11969 -2.02104,1.30589 -4.58232,2.636 l -4.65687,2.41837 z"
       id="path114" />
    <path
       style="fill:#33a02c;fill-opacity:1;stroke:none;stroke-width:2.18297;stroke-linecap:round;stroke-dasharray:none;stroke-dashoffset:0;stroke-opacity:1"
       d="m 540.86155,419.00043 c -1.5117,-2.05339 -21.56454,-29.31106 -44.56187,-60.57259 l -41.81332,-56.83914 -0.004,-8.00274 c -0.004,-7.85814 0.006,-7.99014 0.5403,-7.3058 0.29913,0.38331 22.90653,29.91893 50.23866,65.63471 l 49.6948,64.93778 -4.72352,2.45849 c -2.59793,1.35218 -5.15088,2.67545 -5.67322,2.94062 l -0.94972,0.48211 z"
       id="path115" />
    <path
       style="fill:#33a02c;fill-opacity:1;stroke:none;stroke-width:2.18297;stroke-linecap:round;stroke-dasharray:none;stroke-dashoffset:0;stroke-opacity:1"
       d="m 566.53033,453.91081 -12.29363,-16.72641 5.68795,-3.00554 c 3.12837,-1.65304 5.78866,-2.96809 5.91175,-2.92232 0.12309,0.0458 2.78652,3.44231 5.91874,7.54788 3.31672,4.3474 6.01232,7.60927 6.45494,7.81094 l 0.76001,0.34628 v 11.84167 c 0,6.51291 -0.0329,11.83992 -0.0731,11.83779 -0.0402,-0.002 -5.6052,-7.53076 -12.3667,-16.73029 z"
       id="path116" />
    <path
       style="fill:#33a02c;fill-opacity:1;stroke:none;stroke-width:2.18297;stroke-linecap:round;stroke-dasharray:none;stroke-dashoffset:0;stroke-opacity:1"
       d="m 594.83343,446.15346 c -3.24937,-4.4508 -8.20689,-11.20962 -11.01671,-15.01959 l -5.10876,-6.92722 4.83686,-2.5298 c 4.03499,-2.11041 4.89854,-2.46385 5.20888,-2.13198 0.20461,0.21881 3.01842,3.86568 6.25291,8.10415 l 5.88088,7.70632 v 9.46232 c 0,5.20427 -0.0329,9.45463 -0.073,9.44524 -0.0402,-0.009 -2.73164,-3.65864 -5.98101,-8.10944 z"
       id="path117" />
    <path
       style="fill:#33a02c;fill-opacity:1;stroke:none;stroke-width:0.432358;stroke-linecap:round;stroke-dasharray:none;stroke-dashoffset:0;stroke-opacity:1"
       d="m 573.26745,417.01734 c -0.31997,-0.43383 -0.53877,-0.78166 -0.50988,-0.81055 0.0705,-0.0704 9.66637,-5.08842 9.72367,-5.08478 0.0256,0.002 0.29682,0.33378 0.60276,0.73812 l 0.55626,0.73515 -3.93884,2.0835 c -2.16637,1.14593 -4.37414,2.31188 -4.90617,2.591 l -0.96732,0.5075 z"
       id="path118" />
    <path
       style="fill:#000000;fill-opacity:0;stroke:none;stroke-width:0.432358;stroke-linecap:round;stroke-dasharray:none;stroke-dashoffset:0;stroke-opacity:1"
       d="m 548.72818,429.92155 c -0.33525,-0.45393 -0.59004,-0.84225 -0.5662,-0.86294 0.0746,-0.0648 11.59115,-6.07445 11.63525,-6.07162 0.023,0.001 0.30897,0.35659 0.63547,0.78916 l 0.59364,0.78649 -5.13716,2.71702 c -2.82544,1.49437 -5.45538,2.88582 -5.84432,3.09212 l -0.70714,0.3751 z"
       id="path119" />
    <path
       style="fill:#000000;fill-opacity:0;stroke:none;stroke-width:0.634953;stroke-linecap:round;stroke-dasharray:none;stroke-dashoffset:0;stroke-opacity:1"
       d="m 455.41213,479.49479 c -0.26133,-0.36377 -0.57489,-0.75413 -0.69678,-0.86747 -0.1219,-0.11334 -0.22119,-0.28546 -0.22066,-0.3825 8.3e-4,-0.14845 6.89088,-3.78073 43.44292,-22.90209 23.89306,-12.49911 43.47354,-22.69279 43.51217,-22.65261 0.0386,0.0402 0.32216,0.41617 0.63004,0.83555 l 0.55979,0.76251 -0.23399,0.11981 c -0.12869,0.0659 -19.59643,10.36643 -43.26164,22.89007 -23.66521,12.52364 -43.07919,22.79003 -43.14218,22.8142 -0.0716,0.0275 -0.29252,-0.20385 -0.58967,-0.61747 z"
       id="path120" />
    <path
       style="fill:#9be559;fill-opacity:1;stroke:none;stroke-width:0.634953;stroke-linecap:round;stroke-dasharray:none;stroke-dashoffset:0;stroke-opacity:1"
       d="m 455.41213,479.49479 c -0.26133,-0.36377 -0.57489,-0.75413 -0.69678,-0.86747 -0.1219,-0.11334 -0.22119,-0.28546 -0.22066,-0.3825 8.3e-4,-0.14845 6.89088,-3.78073 43.44292,-22.90209 23.89306,-12.49911 43.47354,-22.69279 43.51217,-22.65261 0.0386,0.0402 0.32216,0.41617 0.63004,0.83555 l 0.55979,0.76251 -0.23399,0.11981 c -0.12869,0.0659 -19.59643,10.36643 -43.26164,22.89007 -23.66521,12.52364 -43.07919,22.79003 -43.14218,22.8142 -0.0716,0.0275 -0.29252,-0.20385 -0.58967,-0.61747 z"
       id="path121" />
    <path
       style="fill:#33a02c;fill-opacity:1;stroke:none;stroke-width:7.1539;stroke-linecap:round;stroke-dasharray:none;stroke-dashoffset:0;stroke-opacity:1"
       d="m 206.74987,371.04207 c -3.46744,-4.44056 -6.30444,-8.35188 -6.30444,-8.69184 0,-0.59341 222.32932,-111.56404 223.5182,-111.56404 0.31889,0 0.5798,3.82075 0.5798,8.49056 v 8.49056 l -105.23356,55.67425 c -57.87846,30.62084 -105.46351,55.67425 -105.74456,55.67425 -0.28106,0 -3.348,-3.63318 -6.81544,-8.07374 z"
       id="path122" />
    <path
       style="fill:#33a02c;fill-opacity:1;stroke:none;stroke-width:7.1539;stroke-linecap:round;stroke-dasharray:none;stroke-dashoffset:0;stroke-opacity:1"
       d="m 460.637,238.68277 c -2.99623,-3.92195 -5.44769,-7.44316 -5.44769,-7.82492 0,-0.38176 43.52672,-23.15165 96.72606,-50.59977 l 96.72605,-49.90566 v 7.92066 c 0,6.21263 -0.31474,8.04144 -1.45953,8.48074 -0.80275,0.30804 -1.80676,1.49873 -2.23116,2.64597 -0.56881,1.53765 -21.26623,12.93878 -78.74647,43.37734 -42.88618,22.7103 -82.95742,43.93408 -89.04722,47.16396 l -11.07235,5.87251 z"
       id="path123" />
    <path
       style="fill:#33a02c;fill-opacity:1;stroke:none;stroke-width:7.1539;stroke-linecap:round;stroke-dasharray:none;stroke-dashoffset:0;stroke-opacity:1"
       d="m 663.08645,163.11578 c -3.33323,-4.50046 -5.8999,-8.3261 -5.70372,-8.50143 0.19618,-0.17533 2.13703,-1.21629 4.31301,-2.31325 l 3.95632,-1.99448 7.12425,9.29881 c 9.74782,12.72315 9.53154,11.69301 2.45498,11.69301 h -6.08443 z"
       id="path124" />
    <path
       style="fill:#33a02c;fill-opacity:1;stroke:none;stroke-width:3.54372;stroke-linecap:round;stroke-dasharray:none;stroke-dashoffset:0;stroke-opacity:1"
       d="m 440.01892,281.72516 c -3.52097,-4.80025 -6.36439,-8.80843 -6.31871,-8.90706 0.0457,-0.0986 1.78596,-1.10453 3.8673,-2.23533 l 3.78424,-2.056 2.66511,3.54092 2.66511,3.54092 -0.13064,7.42214 -0.13064,7.42214 z"
       id="path125" />
    <path
       style="fill:#33a02c;fill-opacity:1;stroke:none;stroke-width:0.435616;stroke-linecap:round;stroke-dasharray:none;stroke-dashoffset:0;stroke-opacity:1"
       d="m 432.52961,260.37764 c 0,-3.13637 0.012,-3.67362 0.0805,-3.60097 0.301,0.31943 3.93785,5.15747 3.90144,5.19001 -0.0506,0.0452 -3.92521,2.09733 -3.96,2.09733 -0.0121,0 -0.0219,-1.65887 -0.0219,-3.68637 z"
       id="path126" />
    <path
       style="fill:#33a02c;fill-opacity:1;stroke:none;stroke-width:0.435616;stroke-linecap:round;stroke-dasharray:none;stroke-dashoffset:0;stroke-opacity:1"
       d="m 454.5145,248.16787 v -4.29237 l 1.55546,2.03216 c 0.8555,1.11768 1.9054,2.48898 2.3331,3.04732 0.42771,0.55834 0.77087,1.02111 0.76258,1.02837 -0.008,0.007 -0.92041,0.49137 -2.02694,1.0758 -1.10654,0.58442 -2.14965,1.13875 -2.31804,1.23184 l -0.30616,0.16926 z"
       id="path127" />
    <path
       style="fill:#33a02c;fill-opacity:1;stroke:none;stroke-width:3.39611;stroke-linecap:round;stroke-dasharray:none;stroke-dashoffset:0;stroke-opacity:1"
       d="m 196.68864,387.34403 c -0.15454,-0.25005 -0.67808,-0.45464 -1.16342,-0.45464 -0.84363,0 -0.88243,-0.39386 -0.88243,-8.95627 0,-4.92595 0.16848,-8.76192 0.37441,-8.52437 0.20593,0.23755 1.77748,2.27317 3.49234,4.5236 1.71485,2.25043 4.11002,5.35618 5.32258,6.90167 l 2.20467,2.80996 -3.81093,2.07734 c -3.85823,2.10312 -5.02838,2.44604 -5.53722,1.62271 z"
       id="path128" />
    <path
       style="fill:#33a02c;fill-opacity:1;stroke:none;stroke-width:10.2893;stroke-linecap:round;stroke-dasharray:none;stroke-dashoffset:0;stroke-opacity:1"
       d="m 542.54851,648.79387 c -50.28783,-68.30782 -75.6869,-103.37022 -75.6869,-104.48274 0,-2.36587 4.62572,-2.57838 6.25971,-0.28758 0.95774,1.34273 24.73457,33.70736 52.83739,71.92139 42.90707,58.34474 51.09604,70.21021 51.09604,74.03601 0,2.50577 -0.18686,4.55596 -0.41524,4.55596 -0.22838,0 -15.56933,-20.58437 -34.091,-45.74304 z"
       id="path130" />
    <path
       style="fill:#33a02c;fill-opacity:1;stroke:none;stroke-width:10.2893;stroke-linecap:round;stroke-dasharray:none;stroke-dashoffset:0;stroke-opacity:1"
       d="m 526.38976,612.84336 c -28.24453,-38.40722 -51.67898,-70.67899 -52.07655,-71.71504 -0.58957,-1.5364 3.31537,-4.58621 4.2313,-3.3047 0.14811,0.20723 22.72006,30.93898 50.1599,68.29279 43.71689,59.51174 49.83791,68.45072 49.46482,72.23714 -0.38546,3.912 -5.28788,-2.29042 -51.77947,-65.51019 z"
       id="path131" />
    <path
       style="fill:#33a02c;fill-opacity:1;stroke:none;stroke-width:10.2893;stroke-linecap:round;stroke-dasharray:none;stroke-dashoffset:0;stroke-opacity:1"
       d="m 775.5955,652.95534 -23.4857,-31.93967 3.7261,-2.23854 c 2.0494,-1.2312 12.8688,-7.03822 24.0431,-12.90449 l 20.3168,-10.66594 v 44.84415 c 0,24.66429 -0.2508,44.84416 -0.5573,44.84416 -0.3065,0 -11.1259,-14.37285 -24.043,-31.93967 z"
       id="path132" />
    <path
       style="fill:#33a02c;fill-opacity:1;stroke:none;stroke-width:10.2893;stroke-linecap:round;stroke-dasharray:none;stroke-dashoffset:0;stroke-opacity:1"
       d="m 732.0138,762.59607 c -37.1213,-50.45665 -67.67748,-92.52566 -67.90264,-93.48667 -0.40883,-1.74491 77.54984,-43.92696 79.73814,-43.14489 0.6008,0.21472 13.5297,17.3103 28.731,37.99018 l 27.6386,37.59978 -0.3559,76.39049 -0.3559,76.39054 z"
       id="path133" />
    <path
       style="fill:#33a02c;fill-opacity:1;stroke:none;stroke-width:10.2893;stroke-linecap:round;stroke-dasharray:none;stroke-dashoffset:0;stroke-opacity:1"
       d="m 497.16472,864.9684 -48.8982,-66.4367 -0.45014,-8.3435 -0.45014,-8.34352 58.30154,-30.7567 c 32.06584,-16.91619 61.55567,-32.57699 65.53296,-34.80178 l 7.23142,-4.04508 v 101.26608 101.266 l -14.1185,7.5672 c -7.76517,4.1619 -15.04825,7.904 -16.18461,8.3159 -1.482,0.5371 -15.89046,-18.034 -50.96433,-65.6879 z"
       id="path134" />
    <path
       style="fill:#33a02c;fill-opacity:1;stroke:none;stroke-width:10.2893;stroke-linecap:round;stroke-dasharray:none;stroke-dashoffset:0;stroke-opacity:1"
       d="m 564.92617,956.8592 c -7.0495,-9.5971 -12.62803,-17.5889 -12.39672,-17.7595 2.43698,-1.7978 25.06242,-13.0792 25.45122,-12.6904 0.28502,0.285 0.34825,11.1789 0.1405,24.2087 l -0.37772,23.6905 z"
       id="path135" />
    <path
       style="fill:#1a59cc;fill-opacity:1;stroke:none;stroke-width:10.2893;stroke-linecap:round;stroke-dasharray:none;stroke-dashoffset:0;stroke-opacity:1"
       d="m 273.88522,1017.9396 c -16.88199,-22.9468 -41.12419,-55.8631 -53.87154,-73.1473 -12.74735,-17.2842 -22.85578,-31.9456 -22.46317,-32.5809 1.22085,-1.9753 53.3617,-28.9687 55.95651,-28.9687 1.35005,0 21.15821,-9.9174 44.01813,-22.0387 22.85992,-12.1212 42.11387,-22.0386 42.78657,-22.0386 0.70456,0 1.0733,42.6953 0.86978,100.7103 l -0.35329,100.7104 -18.12422,9.5375 -18.12423,9.5375 z"
       id="path136" />
    <path
       style="fill:#1a59cc;fill-opacity:1;stroke:none;stroke-width:10.2893;stroke-linecap:round;stroke-dasharray:none;stroke-dashoffset:0;stroke-opacity:1"
       d="m 195.17724,866.9696 c 0.19522,-19.459 0.50513,-40.7395 0.68871,-47.29 l 0.33377,-11.91 24.03644,32.7106 c 13.22004,17.9909 24.21788,33.2678 24.43964,33.9487 0.47435,1.4565 -0.62696,2.1026 -28.50357,16.7232 l -21.34992,11.1975 z"
       id="path137" />
    <path
       style="fill:#1a59cc;fill-opacity:1;stroke:none;stroke-width:10.2893;stroke-linecap:round;stroke-dasharray:none;stroke-dashoffset:0;stroke-opacity:1"
       d="m 326.65162,1089.7822 c -7.79713,-10.6088 -14.50125,-20.1347 -14.89806,-21.1688 -0.49211,-1.2824 3.97888,-4.3348 14.06357,-9.6014 8.13177,-4.2467 15.0037,-7.5026 15.27097,-7.2354 0.26726,0.2673 0.31812,13.2679 0.11302,28.8902 l -0.37291,28.4042 z"
       id="path139" />
    <path
       style="fill:#1a59cc;fill-opacity:1;stroke:none;stroke-width:10.2893;stroke-linecap:round;stroke-dasharray:none;stroke-dashoffset:0;stroke-opacity:1"
       d="m 277.60956,1240.3808 c -11.01508,-14.9585 -19.58223,-27.6245 -19.0381,-28.1467 0.98835,-0.9486 81.72846,-43.8667 82.52469,-43.8667 0.23142,0 0.42077,17.0021 0.42077,37.7824 v 37.7824 l -9.98626,5.4094 c -5.49243,2.9752 -15.36542,8.2955 -21.93997,11.8229 l -11.95371,6.4134 z"
       id="path140" />
    <path
       style="fill:#1a59cc;fill-opacity:1;stroke:none;stroke-width:10.2893;stroke-linecap:round;stroke-dasharray:none;stroke-dashoffset:0;stroke-opacity:1"
       d="m 243.97888,1194.7626 -6.84973,-9.4175 52.19388,-27.6252 52.19389,-27.6252 -0.0319,13.9711 -0.0319,13.971 -43.82547,23.0717 c -24.10402,12.6894 -44.49455,23.0717 -45.31229,23.0717 -0.81775,0 -4.56919,-4.2379 -8.33654,-9.4176 z"
       id="path141" />
    <path
       style="fill:#1a59cc;fill-opacity:1;stroke:none;stroke-width:10.2893;stroke-linecap:round;stroke-dasharray:none;stroke-dashoffset:0;stroke-opacity:1"
       d="m 213.38763,1153.072 c -10.01138,-13.6306 -17.97422,-24.9893 -17.69521,-25.2417 1.7367,-1.5708 18.15521,-9.1279 19.08081,-8.7825 0.62108,0.2318 9.16736,11.3274 18.99173,24.6569 l 17.86249,24.2355 -10.01867,4.9574 -10.01866,4.9574 z"
       id="path142" />
    <path
       style="fill:#1a59cc;fill-opacity:1;stroke:none;stroke-width:1.90513;stroke-linecap:round;stroke-dasharray:none;stroke-dashoffset:0;stroke-opacity:1"
       d="m 741.8071,994.3365 c -11.2399,-15.2805 -20.432,-27.8761 -20.427,-27.9904 0.01,-0.1143 13.6434,-7.4094 30.3075,-16.2113 24.3418,-12.8574 30.4846,-16.0036 31.2456,-16.0036 1.7301,0 2.3559,-0.5235 4.3411,-3.631 0.6467,-1.0121 0.6096,-2.7385 -0.083,-3.8588 -0.529,-0.8559 -0.5345,-1.0326 -0.4694,-14.9046 l 0.066,-14.0384 10.5202,14.3028 10.5203,14.3028 v 35.8887 35.8888 l -22.7053,12.0188 c -12.4879,6.6103 -22.7446,12.0187 -22.7927,12.0187 -0.048,0 -9.2836,-12.5021 -20.5235,-27.7825 z"
       id="path143" />
    <path
       style="fill:#1a59cc;fill-opacity:1;stroke:none;stroke-width:1.90513;stroke-linecap:round;stroke-dasharray:none;stroke-dashoffset:0;stroke-opacity:1"
       d="m 799.4725,901.9766 c -6.9707,-9.5063 -8.1891,-11.2956 -7.9699,-11.705 0.3788,-0.7079 0.3156,-2.4726 -0.1188,-3.3126 -0.2076,-0.4015 -0.7308,-1.0064 -1.1625,-1.3443 l -0.785,-0.6144 9.1962,-4.8625 9.1961,-4.8625 v 18.9714 c 0,10.4343 -0.029,18.9669 -0.064,18.9615 -0.035,-0.01 -3.7667,-5.0597 -8.2924,-11.2316 z"
       id="path144" />
    <path
       style="fill:#1a59cc;fill-opacity:1;stroke:none;stroke-width:1.90513;stroke-linecap:round;stroke-dasharray:none;stroke-dashoffset:0;stroke-opacity:1"
       d="m 708.8051,949.5028 c -4.1759,-5.6993 -7.5042,-10.4463 -7.3961,-10.5489 0.1081,-0.1026 16.8378,-8.9868 37.177,-19.7426 20.3392,-10.7558 37.6977,-19.9452 38.5744,-20.4209 l 1.594,-0.8649 -1e-4,14.5961 -10e-5,14.596 -30.9513,16.3862 c -17.0232,9.0124 -31.0534,16.3806 -31.1782,16.3738 -0.1248,-0.01 -3.6436,-4.6755 -7.8196,-10.3748 z"
       id="path145" />
    <path
       style="fill:#1a59cc;fill-opacity:1;stroke:none;stroke-width:1.90513;stroke-linecap:round;stroke-dasharray:none;stroke-dashoffset:0;stroke-opacity:1"
       d="m 774.2893,1038.4952 c -3.8902,-5.2849 -7.1167,-9.7257 -7.1699,-9.8683 -0.08,-0.2139 12.6179,-7.0371 36.9351,-19.8476 l 3.7786,-1.9905 -0.066,13.6796 -0.066,13.6796 -10.2015,5.4039 c -5.6108,2.9721 -11.537,6.1122 -13.1693,6.978 l -2.9678,1.5742 z"
       id="path146" />
    <path
       style="fill:#1a59cc;fill-opacity:1;stroke:none;stroke-width:1.90513;stroke-linecap:round;stroke-dasharray:none;stroke-dashoffset:0;stroke-opacity:1"
       d="m 797.7547,1070.4087 c -4.9095,-6.6808 -9.5711,-13.0241 -10.3591,-14.0961 l -1.4328,-1.9492 10.8692,-5.7582 10.8691,-5.7582 0.066,19.5392 c 0.061,18.1427 0.035,19.5619 -0.3676,19.8579 -0.2385,0.1753 -0.4978,0.3172 -0.5762,0.3152 -0.078,0 -4.1594,-5.4697 -9.0688,-12.1506 z"
       id="path147" />
    <path
       style="fill:#1a59cc;fill-opacity:1;stroke:none;stroke-width:1.90513;stroke-linecap:round;stroke-dasharray:none;stroke-dashoffset:0;stroke-opacity:1"
       d="m 804.1004,1099.5856 -3.6008,-4.9038 0.6678,-0.3989 c 0.3673,-0.2195 2.0164,-1.1104 3.6645,-1.9798 l 2.9967,-1.5809 v 6.887 c 0,3.7878 -0.029,6.8854 -0.064,6.8835 -0.035,0 -1.6841,-2.21 -3.6645,-4.9071 z"
       id="path148" />
    <path
       style="fill:#1a59cc;fill-opacity:1;stroke:none;stroke-width:1.90513;stroke-linecap:round;stroke-dasharray:none;stroke-dashoffset:0;stroke-opacity:1"
       d="m 587.32723,1236.5113 c -0.73408,-0.3321 -1.38683,-1.0031 -2.03592,-2.0931 -0.25666,-0.431 -0.30748,-0.4326 -0.88562,-0.028 -0.81464,0.5706 -2.47763,0.5435 -3.46131,-0.056 -0.44853,-0.2735 -2.49567,-2.7962 -4.70754,-5.8011 -2.15264,-2.9245 -4.8521,-6.5879 -5.99881,-8.1409 l -2.08493,-2.8237 2.9944,-1.5757 c 1.64692,-0.8666 3.11267,-1.5757 3.25724,-1.5757 0.14456,0 2.58379,3.1561 5.42052,7.0135 2.83672,3.8575 5.20225,7.0135 5.25673,7.0135 0.0545,0 0.0991,-1.42 0.0991,-3.1556 v -3.1556 l -3.43043,-4.6868 c -1.88673,-2.5777 -3.46478,-4.7912 -3.50676,-4.9189 -0.042,-0.1277 0.64199,-0.6263 1.51993,-1.1081 1.42005,-0.7792 1.68468,-0.8451 2.39715,-0.5967 1.2123,0.4226 2.54368,0.3345 3.46876,-0.2295 0.9487,-0.5784 1.84433,-1.9032 1.84574,-2.7302 7.6e-4,-0.4506 0.47766,-0.8068 2.4238,-1.8103 l 2.42286,-1.2493 v 7.507 7.5069 l 0.82887,1.1544 0.82887,1.1543 0.0669,-9.1536 0.0669,-9.1535 3.37035,-1.7781 c 1.85368,-0.9779 3.45901,-1.8162 3.5674,-1.863 0.10838,-0.047 0.19663,5.5768 0.1961,12.4968 -9.1e-4,12.0213 -0.0231,12.6182 -0.4979,13.3969 -0.835,1.3694 -2.57725,2.1237 -3.83276,1.6592 -0.51368,-0.19 -0.75619,-0.063 -1.64229,0.8603 -0.70899,0.7388 -1.34378,1.1401 -1.99601,1.2619 l -0.95639,0.1785 -9.5e-4,2.0757 c -10e-4,2.2707 -0.42068,3.3295 -1.6349,4.1251 -0.88212,0.578 -2.41661,0.7056 -3.35901,0.2793 z"
       id="path149" />
    <path
       style="fill:#1a59cc;fill-opacity:1;stroke:none;stroke-width:1.90513;stroke-linecap:round;stroke-dasharray:none;stroke-dashoffset:0;stroke-opacity:1"
       d="m 579.99738,1221.1531 c -2.64061,-3.5964 -4.86061,-6.6941 -4.93333,-6.8836 -0.0862,-0.2247 0.36142,-0.5866 1.28722,-1.0407 0.78069,-0.3829 1.45899,-0.6451 1.50733,-0.5827 0.0483,0.062 1.66225,2.2567 3.58647,4.8764 l 3.49858,4.7631 -0.0726,2.7033 -0.0726,2.7033 z"
       id="path150" />
    <path
       style="fill:#1a59cc;fill-opacity:1;stroke:none;stroke-width:1.90513;stroke-linecap:round;stroke-dasharray:none;stroke-dashoffset:0;stroke-opacity:1"
       d="m 593.91148,1214.9273 c 0,-0.491 0.0525,-0.6918 0.11664,-0.4464 0.0642,0.2455 0.0642,0.6472 0,0.8927 -0.0641,0.2455 -0.11664,0.045 -0.11664,-0.4463 z"
       id="path151" />
    <path
       style="fill:#1a59cc;fill-opacity:1;stroke:none;stroke-width:1.90513;stroke-linecap:round;stroke-dasharray:none;stroke-dashoffset:0;stroke-opacity:1"
       d="m 593.15096,1220.4568 c -0.5631,-0.8271 -0.57383,-0.9838 -0.57383,-8.3736 v -7.5306 l 0.63759,-0.2905 0.63759,-0.2905 v 8.6658 c 0,4.7662 -0.0287,8.665 -0.0638,8.6641 -0.0351,-10e-4 -0.32198,-0.3811 -0.63759,-0.8447 z"
       id="path152" />
    <path
       style="fill:#1a59cc;fill-opacity:1;stroke:none;stroke-width:1.90513;stroke-linecap:round;stroke-dasharray:none;stroke-dashoffset:0;stroke-opacity:1"
       d="m 576.38226,1190.9083 c -3.92758,-5.348 -8.58388,-11.6883 -10.34734,-14.0895 l -3.20629,-4.3659 10.82776,-5.733 c 5.95527,-3.1532 10.92718,-5.7713 11.04869,-5.818 0.12337,-0.048 0.22093,8.5781 0.22093,19.5331 v 19.6182 l -0.6496,0.296 c -0.35727,0.1628 -0.67288,0.293 -0.70135,0.2893 -0.0285,0 -3.26523,-4.3822 -7.1928,-9.7302 z"
       id="path153" />
    <path
       style="fill:#1a59cc;fill-opacity:1;stroke:none;stroke-width:1.90513;stroke-linecap:round;stroke-dasharray:none;stroke-dashoffset:0;stroke-opacity:1"
       d="m 551.10389,1156.5244 c -3.90695,-5.3177 -7.13046,-9.76 -7.16336,-9.8716 -0.0476,-0.1617 39.791,-21.3973 40.73096,-21.7112 0.16723,-0.056 0.25393,4.5799 0.2528,13.517 l -0.002,13.602 -10.1256,5.3557 c -5.56908,2.9457 -11.57999,6.1255 -13.35757,7.0663 l -3.23197,1.7104 z"
       id="path154" />
    <path
       style="fill:#1a59cc;fill-opacity:1;stroke:none;stroke-width:1.90513;stroke-linecap:round;stroke-dasharray:none;stroke-dashoffset:0;stroke-opacity:1"
       d="m 518.6347,1112.3828 c -12.32627,-16.759 -20.37819,-27.9248 -20.23817,-28.0648 0.12789,-0.1279 18.35821,-9.8229 40.51183,-21.5444 22.15362,-11.7214 41.57043,-21.999 43.14848,-22.8391 l 2.86917,-1.5273 -0.006,38.8465 -0.006,38.8466 -22.69046,11.9863 c -12.47975,6.5924 -22.7865,12.0183 -22.90388,12.0574 -0.11739,0.039 -9.42525,-12.4534 -20.68413,-27.7612 z"
       id="path155" />
    <path
       style="fill:#1a59cc;fill-opacity:1;stroke:none;stroke-width:1.90513;stroke-linecap:round;stroke-dasharray:none;stroke-dashoffset:0;stroke-opacity:1"
       d="m 485.74954,1067.6768 c -4.23027,-5.7516 -7.6037,-10.5366 -7.49651,-10.6334 0.22378,-0.2022 105.71896,-56.036 106.29409,-56.2567 0.33242,-0.1275 0.37889,1.6367 0.37889,14.3866 v 14.532 l -45.74254,24.2144 -45.74253,24.2145 z"
       id="path156" />
    <path
       style="fill:#1a59cc;fill-opacity:1;stroke:none;stroke-width:1.90513;stroke-linecap:round;stroke-dasharray:none;stroke-dashoffset:0;stroke-opacity:1"
       d="m 309.34657,1284.6481 c -3.86174,-5.2475 -7.07793,-9.6884 -7.14708,-9.8686 -0.0842,-0.2193 6.44293,-3.8012 19.74311,-10.8346 10.92785,-5.7788 19.94061,-10.507 20.02834,-10.507 0.0877,0 0.1565,6.1113 0.1528,13.5807 l -0.007,13.5808 -12.87454,6.7949 -12.87453,6.7948 z"
       id="path157" />
    <path
       style="fill:#1a59cc;fill-opacity:1;stroke:none;stroke-width:1.90513;stroke-linecap:round;stroke-dasharray:none;stroke-dashoffset:0;stroke-opacity:1"
       d="m 340.50335,1328.7121 c 0.0782,-0.3912 -0.0322,-1.1287 -0.24547,-1.6391 -0.27575,-0.6599 -15.90131,-22.2444 -19.07095,-26.3437 -0.13832,-0.1789 3.38957,-2.1803 10.22751,-5.8021 5.74127,-3.041 10.50107,-5.529 10.57735,-5.529 0.0763,0 0.13867,8.8158 0.13867,19.5906 v 19.5906 l -0.88467,0.4219 -0.88467,0.4219 z"
       id="path158" />
    <path
       style="fill:#1a59cc;fill-opacity:1;stroke:none;stroke-width:1.90513;stroke-linecap:round;stroke-dasharray:none;stroke-dashoffset:0;stroke-opacity:1"
       d="m 341.68215,1367.9539 c -0.17644,-0.2826 -3.82029,-5.2715 -8.09744,-11.0866 -4.27715,-5.815 -7.77664,-10.6748 -7.77664,-10.7997 0,-0.2539 16.05553,-8.8193 16.2211,-8.6537 0.0579,0.058 0.0757,7.0687 0.0395,15.5795 -0.0533,12.5533 -0.12631,15.3772 -0.38655,14.9605 z"
       id="path159" />
    <path
       style="fill:#62acd3;fill-opacity:1;stroke:none;stroke-width:1.90513;stroke-linecap:round;stroke-dasharray:none;stroke-dashoffset:0;stroke-opacity:1"
       d="m 244.97912,1360.4219 c -5.63711,-7.6633 -10.21348,-14.0406 -10.16971,-14.1719 0.13119,-0.3935 58.42263,-31.1273 58.62676,-30.9106 0.10362,0.1101 4.78071,6.4504 10.39354,14.0897 l 10.20514,13.8896 -1.19068,0.6704 c -1.95211,1.099 -56.7531,30.041 -57.20229,30.2102 -0.31776,0.1196 -2.78615,-3.0698 -10.66276,-13.7774 z"
       id="path160" />
    <path
       style="fill:#62acd3;fill-opacity:1;stroke:none;stroke-width:1.90513;stroke-linecap:round;stroke-dasharray:none;stroke-dashoffset:0;stroke-opacity:1"
       d="m 214.6118,1340.1129 c 0,-4.3744 0.0429,-7.9057 0.0953,-7.8472 0.0524,0.058 1.9428,2.6232 4.20089,5.6994 l 4.10563,5.5931 -1.45924,0.7993 c -0.80258,0.4396 -2.69298,1.4539 -4.20089,2.254 l -2.74165,1.4548 z"
       id="path161" />
    <path
       style="fill:#62acd3;fill-opacity:1;stroke:none;stroke-width:1.90513;stroke-linecap:round;stroke-dasharray:none;stroke-dashoffset:0;stroke-opacity:1"
       d="m 228.82934,1338.4345 c -0.61757,-0.8095 -3.85171,-5.1856 -7.18698,-9.7246 -4.98744,-6.7875 -6.00275,-8.3085 -5.71847,-8.5663 0.19011,-0.1725 12.91261,-6.9486 28.27224,-15.0581 15.35962,-8.1094 28.39359,-15.0127 28.96438,-15.3406 l 1.03779,-0.5962 7.1234,9.6909 c 3.91787,5.3301 7.15101,9.776 7.18475,9.8799 0.0487,0.1499 -31.78429,17.1215 -54.5394,29.0774 l -4.01485,2.1095 z"
       id="path162" />
    <path
       style="fill:#62acd3;fill-opacity:1;stroke:none;stroke-width:1.90513;stroke-linecap:round;stroke-dasharray:none;stroke-dashoffset:0;stroke-opacity:1"
       d="m 212.29946,1312.8457 c -0.20106,-0.1272 -0.84419,-0.2331 -1.42919,-0.2352 h -1.06364 l -19.45099,-26.4602 c -10.69804,-14.553 -19.70872,-26.8052 -20.02372,-27.227 l -0.57273,-0.7669 29.26412,-15.4917 c 16.09526,-8.5205 29.33564,-15.4917 29.42306,-15.4917 0.0874,0 6.17323,8.1771 13.52403,18.1714 7.35081,9.9942 16.57935,22.541 20.50788,27.8816 l 7.14277,9.7101 -25.26142,13.3707 c -13.89379,7.3539 -26.7089,14.1365 -28.47803,15.0724 -2.26611,1.1989 -3.32461,1.6334 -3.58214,1.4704 z"
       id="path163" />
    <path
       style="fill:#62acd3;fill-opacity:1;stroke:none;stroke-width:1.90513;stroke-linecap:round;stroke-dasharray:none;stroke-dashoffset:0;stroke-opacity:1"
       d="m 149.57728,1251.9973 c 0,-6.8908 0.0526,-8.0491 0.35093,-7.7316 0.19302,0.2054 2.1365,2.8044 4.31885,5.7757 2.84051,3.8673 3.88211,5.4688 3.6659,5.6366 -0.1661,0.1289 -2.10958,1.1771 -4.31885,2.3294 l -4.01683,2.0951 z"
       id="path164" />
    <path
       style="fill:#62acd3;fill-opacity:1;stroke:none;stroke-width:1.90513;stroke-linecap:round;stroke-dasharray:none;stroke-dashoffset:0;stroke-opacity:1"
       d="m 164.56613,1251.0798 c -0.34675,-0.4564 -3.86109,-5.2236 -7.80965,-10.5936 -6.57953,-8.9482 -7.1792,-9.849 -7.1792,-10.7843 0,-0.9643 0.0301,-1.0044 0.54665,-0.728 0.31026,0.166 1.10982,0.2394 1.84902,0.1696 1.11884,-0.1056 5.17814,-2.1761 28.80619,-14.6932 15.12711,-8.0136 27.57931,-14.5632 27.67155,-14.5546 0.0923,0.01 3.58342,4.6798 7.75816,10.3806 5.95371,8.13 7.52102,10.4279 7.26856,10.6569 -0.17702,0.1605 -12.77406,6.8649 -27.99341,14.8986 -15.21936,8.0337 -28.26012,14.9378 -28.97949,15.3423 l -1.30793,0.7355 z"
       id="path165" />
    <path
       style="fill:#62acd3;fill-opacity:1;stroke:none;stroke-width:1.90513;stroke-linecap:round;stroke-dasharray:none;stroke-dashoffset:0;stroke-opacity:1"
       d="m 147.15442,1224.2064 c -0.42081,-0.1814 -1.18444,-0.335 -1.69696,-0.3413 l -0.93185,-0.012 -19.40738,-26.3814 c -10.67406,-14.5098 -19.40738,-26.4557 -19.40738,-26.5466 0,-0.091 0.34952,0.129 0.77671,0.4884 1.15491,0.9718 2.4726,1.2533 3.83909,0.82 0.6174,-0.1957 16.27176,-8.381 34.78747,-18.1894 l 33.66493,-17.8336 0.12752,13.4081 c 0.0902,9.4846 0.21395,13.5573 0.4229,13.9181 0.58304,1.0069 1.61711,1.7308 2.87795,2.0147 l 1.28278,0.2889 10.0775,13.6963 c 5.54262,7.5329 10.0764,13.7858 10.07506,13.8954 -0.001,0.1095 -12.20561,6.6565 -27.1206,14.5488 -14.915,7.8923 -27.35921,14.6062 -27.65381,14.9198 -0.29459,0.3136 -0.62859,0.8098 -0.74222,1.1026 -0.18872,0.4864 -0.27282,0.504 -0.97171,0.2027 z"
       id="path166" />
    <path
       style="fill:#62acd3;fill-opacity:1;stroke:none;stroke-width:1.90513;stroke-linecap:round;stroke-dasharray:none;stroke-dashoffset:0;stroke-opacity:1"
       d="m 200.10596,1175.4081 c -5.77788,-7.8487 -10.79988,-14.5022 -11.16,-14.7854 -0.36011,-0.2833 -1.04577,-0.5884 -1.52368,-0.6781 l -0.86892,-0.163 0.0659,-13.9345 c 0.0571,-12.0579 0.1164,-13.9345 0.44071,-13.9345 0.46215,0 37.57528,50.3957 37.30787,50.6602 -0.31267,0.3092 -13.22981,7.1058 -13.50479,7.1058 -0.13853,0 -4.97923,-6.4217 -10.75711,-14.2705 z"
       id="path167" />
    <path
       style="fill:#62acd3;fill-opacity:1;stroke:none;stroke-width:1.90513;stroke-linecap:round;stroke-dasharray:none;stroke-dashoffset:0;stroke-opacity:1"
       d="m 224.04818,1207.9793 c -3.71717,-5.0575 -7.19035,-9.7988 -7.71818,-10.5363 l -0.95969,-1.3409 6.6959,-3.5306 c 3.68274,-1.9418 6.82773,-3.5652 6.98885,-3.6076 0.16113,-0.042 3.48015,4.2614 7.3756,9.5639 3.89544,5.3025 7.35507,10.0014 7.68806,10.4419 l 0.60544,0.801 -5.68356,2.9927 c -3.12596,1.646 -6.25739,3.3118 -6.95875,3.702 l -1.27518,0.7092 z"
       id="path168" />
    <path
       style="fill:#62acd3;fill-opacity:1;stroke:none;stroke-width:1.90513;stroke-linecap:round;stroke-dasharray:none;stroke-dashoffset:0;stroke-opacity:1"
       d="m 256.05095,1251.4614 c -11.21921,-15.2545 -20.39857,-27.8359 -20.39857,-27.9587 0,-0.2931 13.16829,-7.3097 13.57309,-7.2322 0.17113,0.033 9.50375,12.5574 20.73916,27.8327 15.01215,20.4101 20.33888,27.8294 20.09183,27.9849 -0.58092,0.3657 -13.38559,7.1086 -13.49901,7.1086 -0.0593,0 -9.28728,-12.4809 -20.5065,-27.7353 z"
       id="path169" />
    <path
       style="fill:#62acd3;fill-opacity:1;stroke:none;stroke-width:1.90513;stroke-linecap:round;stroke-dasharray:none;stroke-dashoffset:0;stroke-opacity:1"
       d="m 288.43469,1295.4867 c -3.92184,-5.3358 -7.13062,-9.778 -7.13062,-9.8715 3e-5,-0.2992 13.73955,-7.4419 13.88615,-7.219 0.0775,0.1178 3.27541,4.4725 7.1065,9.6771 3.83108,5.2045 6.98717,9.5429 7.01352,9.6409 0.0466,0.1732 -1.97793,1.2882 -9.90894,5.4574 l -3.83597,2.0165 z"
       id="path170" />
    <path
       style="fill:#62acd3;fill-opacity:1;stroke:none;stroke-width:1.90513;stroke-linecap:round;stroke-dasharray:none;stroke-dashoffset:0;stroke-opacity:1"
       d="m 310.63335,1325.7081 c -5.61082,-7.6489 -10.23551,-14.0001 -10.27708,-14.1137 -0.0651,-0.1777 12.8841,-7.1694 13.59044,-7.3379 0.14144,-0.034 4.72937,6.0341 10.1954,13.484 5.46603,7.4499 10.20016,13.6647 10.52029,13.8105 0.32013,0.1459 0.58206,0.3417 0.58206,0.4351 0,0.159 -14.05053,7.6693 -14.29641,7.6417 -0.0623,-0.01 -4.70388,-6.2708 -10.3147,-13.9197 z"
       id="path171" />
    <path
       style="fill:#62acd3;fill-opacity:1;stroke:none;stroke-width:5.28476;stroke-linecap:round;stroke-dasharray:none;stroke-dashoffset:0;stroke-opacity:1"
       d="m 246.47204,1146.5212 c -4.81868,-6.5175 -12.25175,-16.6129 -16.51793,-22.4341 l -7.75669,-10.5841 39.95875,-21.1473 c 32.99272,-17.4606 40.11098,-20.9804 40.83196,-20.1905 2.36129,2.5869 32.31121,43.9018 32.02947,44.1836 -0.47507,0.4751 -79.00416,42.0224 -79.42703,42.0224 -0.1965,0 -4.29984,-5.3325 -9.11853,-11.85 z"
       id="path172" />
    <path
       style="fill:#62acd3;fill-opacity:1;stroke:none;stroke-width:5.28476;stroke-linecap:round;stroke-dasharray:none;stroke-dashoffset:0;stroke-opacity:1"
       d="m 201.66854,1085.6793 -14.9907,-20.3396 -0.019,-74.5124 c -0.0168,-65.8537 0.1042,-74.4859 1.04162,-74.2838 1.36583,0.2946 109.44603,147.1825 108.75951,147.8112 -0.94693,0.8671 -78.41287,41.6642 -79.11252,41.6642 -0.37849,0 -7.43398,-9.1528 -15.67886,-20.3396 z"
       id="path173" />
    <path
       style="fill:#62acd3;fill-opacity:1;stroke:none;stroke-width:5.28476;stroke-linecap:round;stroke-dasharray:none;stroke-dashoffset:0;stroke-opacity:1"
       d="m 143.1307,1006.077 c -19.45526,-26.4424 -35.47097,-48.3346 -35.59047,-48.6494 -0.1195,-0.3147 0.35804,-0.4279 1.0612,-0.2515 0.76323,0.1914 15.06416,-6.9773 35.48558,-17.7882 18.81391,-9.96 34.33554,-17.9805 34.49251,-17.8236 0.15697,0.157 0.20417,30.0539 0.10489,66.4376 l -0.18051,66.1521 z"
       id="path174" />
    <path
       style="fill:#62acd3;fill-opacity:1;stroke:none;stroke-width:5.28476;stroke-linecap:round;stroke-dasharray:none;stroke-dashoffset:0;stroke-opacity:1"
       d="m 350.06392,1106.4483 c 0,-1.2957 0.37405,-1.8443 1.25751,-1.8443 0.69163,0 1.96507,-0.4956 2.82986,-1.1013 l 1.57234,-1.1014 0.0203,-29.8502 0.0203,-29.8502 36.59095,-19.2961 36.59096,-19.2961 1.23806,1.511 c 0.98351,1.2003 1.23806,2.8739 1.23806,8.14 0,6.4995 -0.0349,6.6379 -1.78732,7.0777 -1.81937,0.4566 -3.16493,2.1848 -3.16493,4.0648 0,0.5732 4.9749,7.7805 11.05532,16.0163 6.22368,8.4299 10.78424,15.2365 10.43509,15.5745 -0.62989,0.6096 -95.00067,50.6884 -96.8751,51.4077 -0.72928,0.2799 -1.02142,-0.1355 -1.02142,-1.4524 z"
       id="path175" />
    <path
       style="fill:#62acd3;fill-opacity:1;stroke:none;stroke-width:5.28476;stroke-linecap:round;stroke-dasharray:none;stroke-dashoffset:0;stroke-opacity:1"
       d="m 458.46438,1030.2715 -10.80723,-14.8181 0.19527,-10.7282 0.19526,-10.7281 47.75382,-25.3207 c 26.26461,-13.9264 47.9814,-25.2532 48.25955,-25.1706 0.27814,0.082 7.85363,10.1529 16.83441,22.3786 l 16.32869,22.2285 -1.97767,1.1982 c -2.88059,1.7454 -105.37352,55.874 -105.69964,55.8222 -0.15138,-0.024 -5.13849,-6.7119 -11.08246,-14.8618 z"
       id="path176" />
    <path
       style="fill:#62acd3;fill-opacity:1;stroke:none;stroke-width:5.28476;stroke-linecap:round;stroke-dasharray:none;stroke-dashoffset:0;stroke-opacity:1"
       d="m 447.69395,898.2833 c 0,-47.3797 0.26911,-85.8425 0.59803,-85.4729 1.40644,1.5807 90.15613,122.6144 90.2298,123.0523 0.0683,0.4059 -36.08341,19.7794 -80.039,42.8925 l -10.78883,5.673 z"
       id="path177" />
    <path
       style="fill:#62acd3;fill-opacity:1;stroke:none;stroke-width:5.28476;stroke-linecap:round;stroke-dasharray:none;stroke-dashoffset:0;stroke-opacity:1"
       d="m 355.8981,931.4533 0.17926,-101.6917 31.12842,-16.4792 c 17.12063,-9.0635 34.07323,-18.0347 37.67246,-19.936 l 6.54404,-3.4568 -0.0163,101.6444 -0.0163,101.6444 -29.49537,15.5642 c -16.22246,8.5603 -33.24841,17.5528 -37.83546,19.9833 l -8.34009,4.419 z"
       id="path178" />
    <path
       style="fill:#62acd3;fill-opacity:1;stroke:none;stroke-width:5.28476;stroke-linecap:round;stroke-dasharray:none;stroke-dashoffset:0;stroke-opacity:1"
       d="m 350.22614,1139.1905 0.19151,-14.2284 52.70607,-27.9474 c 28.98834,-15.371 53.18361,-28.0713 53.76726,-28.2227 1.26793,-0.329 15.99136,19.4273 15.08684,20.2439 -0.67505,0.6094 -121.15032,64.3831 -121.62656,64.3831 -0.17415,0 -0.23046,-6.4028 -0.12512,-14.2285 z"
       id="path179" />
    <path
       style="fill:#62acd3;fill-opacity:1;stroke:none;stroke-width:5.28476;stroke-linecap:round;stroke-dasharray:none;stroke-dashoffset:0;stroke-opacity:1"
       d="m 350.06975,1201.3497 0.006,-38.38 52.11947,-27.5911 c 28.66572,-15.1751 57.39498,-30.3492 63.8428,-33.7202 l 11.72331,-6.1292 20.32007,27.6674 c 11.17603,15.2171 20.24926,27.7305 20.16272,27.8076 -0.4284,0.3818 -167.54501,88.7254 -167.83876,88.7254 -0.18771,0 -0.33866,-17.271 -0.33545,-38.3799 z"
       id="path180" />
    <path
       style="fill:#62acd3;fill-opacity:1;stroke:none;stroke-width:5.28476;stroke-linecap:round;stroke-dasharray:none;stroke-dashoffset:0;stroke-opacity:1"
       d="m 350.07682,1262.6043 0.0129,-13.3239 76.88425,-40.6792 c 42.28635,-22.3736 81.27098,-42.9946 86.63251,-45.8245 l 9.74825,-5.1453 6.71336,9.0363 c 3.69235,4.97 6.72528,9.3767 6.73985,9.7925 0.0195,0.5568 -182.41002,97.8191 -186.12418,99.2321 -0.3415,0.13 -0.61405,-5.7474 -0.60694,-13.088 z"
       id="path181" />
    <path
       style="fill:#62acd3;fill-opacity:1;stroke:none;stroke-width:5.28476;stroke-linecap:round;stroke-dasharray:none;stroke-dashoffset:0;stroke-opacity:1"
       d="m 350.06413,1304.6643 2.2e-4,-19.3033 95.52265,-50.5837 c 52.53746,-27.821 95.91376,-50.6537 96.39176,-50.7393 0.47801,-0.086 5.39405,6.0378 10.92453,13.6076 8.62061,11.7995 9.88247,13.8534 8.8433,14.3939 -0.66667,0.3468 -48.01087,25.3812 -105.20934,55.6319 -57.19846,30.2507 -104.55434,55.2927 -105.23527,55.6488 -1.16468,0.609 -1.23805,-0.4968 -1.23785,-18.6559 z"
       id="path182" />
    <path
       style="fill:#62acd3;fill-opacity:1;stroke:none;stroke-width:1.04322;stroke-linecap:round;stroke-dasharray:none;stroke-dashoffset:0;stroke-opacity:1"
       d="m 559.73043,1193.7147 -10.42594,-14.1724 1.49687,-0.8031 c 1.40085,-0.7516 1.51157,-0.788 1.72617,-0.5673 0.36134,0.3717 20.51187,27.8185 20.54742,27.9875 0.0175,0.083 -0.63202,0.5059 -1.44338,0.9394 l -1.47521,0.7882 z"
       id="path183" />
    <path
       style="fill:#62acd3;fill-opacity:1;stroke:none;stroke-width:1.04322;stroke-linecap:round;stroke-dasharray:none;stroke-dashoffset:0;stroke-opacity:1"
       d="m 537.58104,1163.6035 c -3.92665,-5.3387 -7.15494,-9.7787 -7.17399,-9.8665 -0.019,-0.088 0.62861,-0.514 1.43922,-0.9471 l 1.47385,-0.7875 7.18475,9.7702 c 3.95161,5.3736 7.18474,9.8365 7.18474,9.9175 0,0.127 -2.63846,1.6077 -2.88115,1.6169 -0.0484,0 -3.30077,-4.3647 -7.22742,-9.7035 z"
       id="path184" />
    <path
       style="fill:#62acd3;fill-opacity:1;stroke:none;stroke-width:1.04322;stroke-linecap:round;stroke-dasharray:none;stroke-dashoffset:0;stroke-opacity:1"
       d="m 505.17741,1119.5496 c -11.29805,-15.3594 -20.541,-27.9758 -20.53988,-28.0365 0.004,-0.2122 2.917,-1.6463 3.05491,-1.5039 0.26002,0.2685 41.08625,55.8233 41.04559,55.8532 -0.0228,0.017 -0.71134,0.3867 -1.53008,0.822 l -1.48862,0.7915 z"
       id="path185" />
    <path
       style="fill:#62acd3;fill-opacity:1;stroke:none;stroke-width:1.04322;stroke-linecap:round;stroke-dasharray:none;stroke-dashoffset:0;stroke-opacity:1"
       d="m 472.27605,1074.8436 c -4.22455,-5.7569 -7.69543,-10.5135 -7.71306,-10.5702 -0.0176,-0.057 0.64617,-0.4605 1.47511,-0.8972 l 1.50716,-0.7941 7.63781,10.3851 c 4.2008,5.7118 7.67279,10.4762 7.71553,10.5875 0.0557,0.1453 -0.32936,0.4147 -1.36209,0.953 -0.79189,0.4127 -1.47122,0.7622 -1.50962,0.7766 -0.0384,0.014 -3.52628,-4.6839 -7.75084,-10.4407 z"
       id="path186" />
    <path
       style="fill:#62acd3;fill-opacity:1;stroke:none;stroke-width:1.04322;stroke-linecap:round;stroke-dasharray:none;stroke-dashoffset:0;stroke-opacity:1"
       d="m 446.54312,1039.8379 -9.52572,-12.9505 0.41548,-0.2148 c 0.6145,-0.3178 1.36976,-1.0769 1.68369,-1.6923 0.15206,-0.298 0.29761,-0.5419 0.32345,-0.5419 0.0618,0 19.55628,26.5062 19.61078,26.6644 0.0293,0.085 -2.78825,1.6855 -2.96721,1.6855 -0.008,0 -4.30132,-5.8277 -9.54047,-12.9504 z"
       id="path187" />
    <path
       style="fill:#62acd3;fill-opacity:1;stroke:none;stroke-width:3.56372;stroke-linecap:round;stroke-dasharray:none;stroke-dashoffset:0;stroke-opacity:1"
       d="m 601.79798,1068.3557 0.12209,-38.8016 50.757,-26.8539 c 27.91636,-14.7697 50.79553,-26.7953 50.84253,-26.7235 0.1793,0.2734 38.6485,52.6809 39.7053,54.0915 l 1.1113,1.4832 -68.82271,36.4028 c -37.85249,20.0216 -69.95107,37.0329 -71.33015,37.803 l -2.50744,1.4001 z"
       id="path188" />
    <path
       style="fill:#62acd3;fill-opacity:1;stroke:none;stroke-width:3.56372;stroke-linecap:round;stroke-dasharray:none;stroke-dashoffset:0;stroke-opacity:1"
       d="m 601.68153,1006.2885 v -14.4747 l 40.82834,-21.6098 c 22.45559,-11.8853 40.88538,-21.5377 40.95508,-21.4498 1.82012,2.2972 15.05045,20.6051 14.95675,20.6969 -0.073,0.072 -20.09881,10.6875 -44.50096,23.5902 -24.40215,12.9027 -46.13867,24.4185 -48.30338,25.5907 l -3.93583,2.1313 z"
       id="path189" />
    <path
       style="fill:#62acd3;fill-opacity:1;stroke:none;stroke-width:3.56372;stroke-linecap:round;stroke-dasharray:none;stroke-dashoffset:0;stroke-opacity:1"
       d="m 601.79337,1129.3683 0.1267,-13.475 73.2303,-38.7623 c 40.27663,-21.3193 73.48563,-38.7095 73.79763,-38.645 0.7458,0.1544 14.5181,18.8708 14.0811,19.1362 -1.1217,0.6812 -160.99146,85.2211 -161.15792,85.2211 -0.11248,0 -0.14749,-6.0637 -0.0778,-13.475 z"
       id="path190" />
    <path
       style="fill:#62acd3;fill-opacity:1;stroke:none;stroke-width:3.56372;stroke-linecap:round;stroke-dasharray:none;stroke-dashoffset:0;stroke-opacity:1"
       d="m 601.68153,1171.5367 v -19.5155 l 83.05296,-43.9472 c 45.67911,-24.171 83.19471,-43.9371 83.36801,-43.9247 0.3652,0.026 20.7031,27.7029 20.4925,27.887 -0.077,0.068 -40.6079,21.5291 -90.0682,47.6924 -49.46025,26.1634 -91.48419,48.4143 -93.38651,49.4465 l -3.45876,1.8769 z"
       id="path191" />
    <path
       style="fill:#62acd3;fill-opacity:1;stroke:none;stroke-width:3.56372;stroke-linecap:round;stroke-dasharray:none;stroke-dashoffset:0;stroke-opacity:1"
       d="m 815.8917,1058.0509 0.01,-19.4475 11.3026,-5.9634 c 6.2165,-3.2798 13.6469,-7.1884 16.512,-8.6857 6.9106,-3.6113 7.1644,-3.8584 6.7476,-6.5708 -0.5391,-3.5082 -0.7866,-33.0372 -0.2754,-32.8523 0.2485,0.09 9.36,12.2771 20.2477,27.0829 l 19.7959,26.9197 -2.2254,1.039 c -1.2239,0.5715 -16.609,8.6616 -34.1891,17.9779 -17.58,9.3163 -33.3054,17.6158 -34.9454,18.4432 l -2.9817,1.5045 z"
       id="path192" />
    <path
       style="fill:#62acd3;fill-opacity:1;stroke:none;stroke-width:3.56372;stroke-linecap:round;stroke-dasharray:none;stroke-dashoffset:0;stroke-opacity:1"
       d="m 841.8585,1002.3461 c 2e-4,-7.6093 0.066,-10.6554 0.1464,-6.7691 0.08,3.8863 0.08,10.1121 -4e-4,13.8351 -0.081,3.7229 -0.1462,0.5433 -0.146,-7.066 z"
       id="path193" />
    <path
       style="fill:#62acd3;fill-opacity:1;stroke:none;stroke-width:3.56372;stroke-linecap:round;stroke-dasharray:none;stroke-dashoffset:0;stroke-opacity:1"
       d="m 815.9982,1016.1067 0.1265,-13.5689 12.5501,-6.6556 c 6.9025,-3.6605 12.6486,-6.6556 12.769,-6.6556 0.1205,0 0.162,6.0648 0.092,13.4773 l -0.1267,13.4772 -12.7689,6.7472 -12.7688,6.7472 z"
       id="path194" />
    <path
       style="fill:#62acd3;fill-opacity:1;stroke:none;stroke-width:3.56372;stroke-linecap:round;stroke-dasharray:none;stroke-dashoffset:0;stroke-opacity:1"
       d="m 815.8861,965.5871 c 0,-27.3352 0.021,-27.9852 0.8815,-26.875 0.4848,0.6258 6.9516,9.3904 14.3708,19.4769 13.0638,17.7607 13.4596,18.3633 12.5465,19.1026 -0.5185,0.4199 -1.1856,1.2172 -1.4825,1.772 -0.3279,0.6126 -5.4516,3.6012 -13.0525,7.6133 -6.882,3.6327 -12.6817,6.6764 -12.8882,6.7639 -0.2066,0.087 -0.3756,-12.4467 -0.3756,-27.8537 z"
       id="path195" />
    <path
       style="fill:#62acd3;fill-opacity:1;stroke:none;stroke-width:3.56372;stroke-linecap:round;stroke-dasharray:none;stroke-dashoffset:0;stroke-opacity:1"
       d="m 765.0781,1046.3766 c -2.8862,-3.9616 -6.0449,-8.3159 -7.0192,-9.6762 l -1.7714,-2.4732 1.8253,-1.0259 1.8253,-1.0259 6.9829,9.4884 c 3.8406,5.2185 6.9829,9.6843 6.9829,9.9239 0,0.345 -3.0599,2.1216 -3.4749,2.0176 -0.057,-0.014 -2.4646,-3.2671 -5.3509,-7.2287 z"
       id="path196" />
    <path
       style="fill:#62acd3;fill-opacity:1;stroke:none;stroke-width:3.56372;stroke-linecap:round;stroke-dasharray:none;stroke-dashoffset:0;stroke-opacity:1"
       d="m 785.5922,1074.2707 c -5.5102,-7.5172 -10.0783,-13.8055 -10.1513,-13.9741 -0.1491,-0.3438 3.6363,-2.1537 3.8696,-1.8501 0.082,0.1066 4.7044,6.4095 10.272,14.0064 l 10.1229,13.8126 -1.5703,0.8373 c -0.8637,0.4606 -1.785,0.837 -2.0474,0.8365 -0.2624,-6e-4 -4.9854,-6.1514 -10.4955,-13.6686 z"
       id="path197" />
    <path
       style="fill:#62acd3;fill-opacity:1;stroke:none;stroke-width:3.56372;stroke-linecap:round;stroke-dasharray:none;stroke-dashoffset:0;stroke-opacity:1"
       d="m 749.6744,1025.3145 c -1.0153,-1.3499 -8.7111,-11.793 -17.1018,-23.207 -8.3907,-11.4139 -16.7989,-22.8418 -18.685,-25.3955 l -3.4293,-4.6429 1.8494,-0.9435 c 1.7401,-0.8877 1.8911,-0.8953 2.5574,-0.1277 0.3894,0.4486 9.1437,12.3011 19.4539,26.3389 10.3103,14.0378 19.2347,26.1697 19.8321,26.9597 l 1.0863,1.4364 -1.8585,1.0179 -1.8585,1.018 z"
       id="path198" />
    <path
       style="fill:#62acd3;fill-opacity:1;stroke:none;stroke-width:3.56372;stroke-linecap:round;stroke-dasharray:none;stroke-dashoffset:0;stroke-opacity:1"
       d="m 697.9517,955.0967 -7.4927,-10.2398 1.9609,-1.0004 c 1.5891,-0.8107 2.0321,-0.8783 2.3365,-0.3567 0.2066,0.354 3.6161,5.0351 7.5767,10.4024 l 7.2011,9.7587 -1.5679,0.8361 c -0.8623,0.4599 -1.7825,0.8369 -2.0449,0.8378 -0.2624,9e-4 -3.8488,-4.6063 -7.9697,-10.2381 z"
       id="path199" />
    <path
       style="fill:#62acd3;fill-opacity:1;stroke:none;stroke-width:9.57193;stroke-linecap:round;stroke-dasharray:none;stroke-dashoffset:0;stroke-opacity:1"
       d="m 677.97527,906.6318 c -8.86483,-12.0514 -14.71844,-21.2022 -14.73591,-23.0361 -0.0256,-2.6914 4.54467,-5.4679 39.59894,-24.0572 21.7953,-11.558 39.7575,-20.8758 39.9159,-20.7061 0.1583,0.1697 7.0478,9.5345 15.3098,20.8107 8.262,11.2762 15.5446,21.159 16.1836,21.9618 0.814,1.0227 -10.6467,7.6936 -38.2797,22.2814 -21.6929,11.4519 -40.3065,21.253 -41.3636,21.7803 -1.448,0.7223 -5.54956,-3.9726 -16.62903,-19.0348 z"
       id="path200" />
    <path
       style="fill:#62acd3;fill-opacity:1;stroke:none;stroke-width:9.57193;stroke-linecap:round;stroke-dasharray:none;stroke-dashoffset:0;stroke-opacity:1"
       d="M 608.75161,939.8223 V 909.162 l 21.00195,-10.9846 c 11.55107,-6.0415 21.71605,-10.9846 22.58884,-10.9846 1.17906,0 1.43409,2.6396 0.99233,10.2708 l -0.59457,10.2707 10.53453,14.3708 10.53453,14.3708 -3.37735,2.0165 c -5.78336,3.4532 -60.13496,31.9903 -60.92845,31.9903 -0.4135,0 -0.75181,-13.7971 -0.75181,-30.6604 z"
       id="path201" />
    <path
       style="fill:#62acd3;fill-opacity:1;stroke:none;stroke-width:9.57193;stroke-linecap:round;stroke-dasharray:none;stroke-dashoffset:0;stroke-opacity:1"
       d="M 608.75161,797.6526 V 696.4664 l 21.94414,-11.63227 c 12.06928,-6.39774 22.16017,-11.63226 22.42421,-11.63226 0.26403,0 0.48005,45.55317 0.48005,101.22926 0,72.52227 -0.39813,101.22927 -1.40392,101.22927 -0.77216,0 -2.93449,1.0578 -4.80519,2.3507 -1.87069,1.2929 -11.32982,6.508 -21.02028,11.5892 l -17.61901,9.2386 z"
       id="path202" />
    <path
       style="fill:#62acd3;fill-opacity:1;stroke:none;stroke-width:9.57193;stroke-linecap:round;stroke-dasharray:none;stroke-dashoffset:0;stroke-opacity:1"
       d="m 766.0414,855.6801 c -8.9857,-12.3354 -16.3377,-23.492 -16.3377,-24.7924 0,-4.6792 -6.1883,-5.152 -11.9383,-0.9121 -2.2434,1.6543 -17.6296,10.0878 -34.1915,18.7412 -16.56183,8.6534 -32.5631,17.1268 -35.55833,18.8297 l -5.44588,3.0964 v -93.71462 -93.7146 l 67.67471,92.05886 c 37.2211,50.63236 68.0924,92.76016 68.6029,93.61746 0.617,1.036 -1.6537,2.8619 -6.7724,5.4458 -4.2354,2.1381 -8.1497,3.8615 -8.6983,3.8298 -0.5487,-0.032 -8.3495,-10.1501 -17.3352,-22.4855 z"
       id="path203" />
    <path
       style="fill:#62acd3;fill-opacity:1;stroke:none;stroke-width:1.0611;stroke-linecap:round;stroke-dasharray:none;stroke-dashoffset:0;stroke-opacity:1"
       d="m 681.37824,932.8263 c -0.22205,-0.2842 -4.95703,-6.7093 -10.52219,-14.2781 l -10.11847,-13.7613 0.3939,-0.8697 c 0.36524,-0.8064 0.39964,-1.0425 0.47293,-3.2459 l 0.079,-2.3762 11.71901,15.9308 c 6.44546,8.762 11.88944,16.1607 12.09774,16.4417 l 0.37873,0.5108 -2.04848,1.0823 -2.04849,1.0824 z"
       id="path204" />
    <path
       style="fill:#62acd3;fill-opacity:1;stroke:none;stroke-width:6.46619;stroke-linecap:round;stroke-dasharray:none;stroke-dashoffset:0;stroke-opacity:1"
       d="m 816.2006,792.3848 c 0.025,-62.15018 0.1651,-69.27259 1.3354,-67.72342 11.1858,14.80719 71.3667,97.16322 71.4224,97.73992 0.042,0.4347 -12.7143,7.5654 -28.3475,15.8461 -15.6331,8.2806 -32.027,16.9764 -36.4309,19.3239 l -8.0069,4.2683 z"
       id="path205" />
    <path
       style="fill:#1a59cc;fill-opacity:1;stroke:none;stroke-width:6.46619;stroke-linecap:round;stroke-dasharray:none;stroke-dashoffset:0;stroke-opacity:1"
       d="m 187.85505,1118.7354 c -0.73302,-1.3791 -0.96526,-7.3136 -0.79549,-20.3277 l 0.23976,-18.38 10.70275,14.6288 c 5.88651,8.0458 10.75563,14.9535 10.82026,15.3503 0.12006,0.7372 -17.299,10.4548 -18.99628,10.5976 -0.51466,0.043 -1.40161,-0.7978 -1.971,-1.869 z"
       id="path206" />
    <path
       style="fill:#33a02c;fill-opacity:1;stroke:none;stroke-width:1.32384;stroke-linecap:round;stroke-dasharray:none;stroke-dashoffset:0;stroke-opacity:1"
       d="m 194.54631,593.38825 c 0,-9.57637 0.0287,-17.37836 0.0638,-17.33774 0.0351,0.0406 3.63832,4.93854 8.00721,10.88428 4.36889,5.94574 8.48089,11.53877 9.13778,12.42895 l 1.19435,1.61852 -8.62559,4.56488 c -4.74408,2.51069 -8.88478,4.71964 -9.20156,4.90879 l -0.57597,0.3439 z"
       id="path207" />
    <path
       style="fill:#9be559;fill-opacity:1;stroke:none;stroke-width:3.81974;stroke-linecap:round;stroke-dasharray:none;stroke-dashoffset:0;stroke-opacity:1"
       d="m 170.75254,758.05625 c -3.81667,-5.19702 -13.95477,-18.99846 -22.52911,-30.66988 -18.70275,-25.45823 -31.77032,-43.62067 -35.82731,-49.79585 l -2.98396,-4.54194 15.98718,-8.31175 c 8.79295,-4.57145 24.1559,-12.58752 34.13988,-17.81347 l 18.1527,-9.50173 0.39323,3.46707 c 0.21627,1.90688 0.21627,31.17572 0,65.04187 l -0.39323,61.5748 z"
       id="path208" />
    <rect
       style="fill:#9be559;fill-opacity:1;stroke:none;stroke-width:7.47;stroke-linecap:round;stroke-dasharray:none;stroke-dashoffset:0;stroke-opacity:1"
       id="rect208"
       width="54.453892"
       height="54.453892"
       x="1001.6965"
       y="856.44958"
       rx="1.0490298e-16" />
    <rect
       style="fill:#33a02c;fill-opacity:1;stroke:none;stroke-width:7.47;stroke-linecap:round;stroke-dasharray:none;stroke-dashoffset:0;stroke-opacity:1"
       id="rect208-5"
       width="54.453892"
       height="54.453892"
       x="1001.6965"
       y="724.96637"
       rx="1.0490298e-16" />
    <rect
       style="fill:#62acd3;fill-opacity:1;stroke:none;stroke-width:7.47;stroke-linecap:round;stroke-dasharray:none;stroke-dashoffset:0;stroke-opacity:1"
       id="rect208-9"
       width="54.453892"
       height="54.453892"
       x="1001.6965"
       y="593.48322"
       rx="1.0490298e-16" />
    <rect
       style="fill:#1a59cc;fill-opacity:1;stroke:none;stroke-width:7.47;stroke-linecap:round;stroke-dasharray:none;stroke-dashoffset:0;stroke-opacity:1"
       id="rect208-8"
       width="54.453892"
       height="54.453892"
       x="1001.6965"
       y="462"
       rx="1.0490298e-16" />
    <text
       xml:space="preserve"
       style="font-size:32px;font-family:sans-serif;-inkscape-font-specification:'sans-serif, Normal';fill:#9be559;fill-opacity:1;stroke:none;stroke-width:7.47;stroke-linecap:round;stroke-dasharray:none;stroke-dashoffset:0;stroke-opacity:1"
       x="1064.0573"
       y="499.28094"
       id="text208"><tspan
         sodipodi:role="line"
         id="tspan208"
         x="1064.0573"
         y="499.28094"
         style="fill:#000000">Shelf_A.svg</tspan></text>
    <text
       xml:space="preserve"
       style="font-size:32px;font-family:sans-serif;-inkscape-font-specification:'sans-serif, Normal';fill:#000000;fill-opacity:1;stroke:none;stroke-width:7.47;stroke-linecap:round;stroke-dasharray:none;stroke-dashoffset:0;stroke-opacity:1"
       x="1063.6613"
       y="609.70361"
       id="text209"><tspan
         sodipodi:role="line"
         id="tspan209"
         x="1063.6613"
         y="609.70361">Shelf_Ba.svg &amp; </tspan><tspan
         sodipodi:role="line"
         x="1063.6613"
         y="649.70361"
         id="tspan210">Shelf_Bb.svg</tspan></text>
    <text
       xml:space="preserve"
       style="font-size:32px;font-family:sans-serif;-inkscape-font-specification:'sans-serif, Normal';fill:#000000;fill-opacity:1;stroke:none;stroke-width:7.47;stroke-linecap:round;stroke-dasharray:none;stroke-dashoffset:0;stroke-opacity:1"
       x="1079.4633"
       y="761.65814"
       id="text211"><tspan
         sodipodi:role="line"
         id="tspan211"
         x="1079.4633"
         y="761.65814">Shelf_C.svg</tspan></text>
    <text
       xml:space="preserve"
       style="font-size:32px;font-family:sans-serif;-inkscape-font-specification:'sans-serif, Normal';fill:#000000;fill-opacity:1;stroke:none;stroke-width:7.47;stroke-linecap:round;stroke-dasharray:none;stroke-dashoffset:0;stroke-opacity:1"
       x="1079.4633"
       y="889.64856"
       id="text212"><tspan
         sodipodi:role="line"
         x="1079.4633"
         y="889.64856"
         id="tspan213">Shelf_D.svg</tspan></text>
    <text
       xml:space="preserve"
       style="font-size:32px;font-family:sans-serif;-inkscape-font-specification:'sans-serif, Normal';fill:#000000;fill-opacity:1;stroke:none;stroke-width:7.47;stroke-linecap:round;stroke-dasharray:none;stroke-dashoffset:0;stroke-opacity:1"
       x="1155.3809"
       y="444.23328"
       id="text215"><tspan
         sodipodi:role="line"
         id="tspan215"
         x="1155.3809"
         y="444.23328" /></text>
  </g>
</svg>
